<svg xmlns="http://www.w3.org/2000/svg" style="display: none;">
	<svg id="pocket" viewBox="0 0 24 24" xmlns="http://www.w3.org/2000/svg">
		<title>
			pocket
		</title>
		<path d="M18.813 10.259l-5.646 5.419c-.32.305-.73.458-1.141.458-.41 0-.821-.153-1.141-.458l-5.646-5.419c-.657-.628-.677-1.671-.049-2.326.63-.657 1.671-.679 2.325-.05l4.511 4.322 4.517-4.322c.66-.631 1.697-.607 2.326.049.631.645.615 1.695-.045 2.326l-.011.001zm5.083-7.546c-.299-.858-1.125-1.436-2.041-1.436H2.179c-.9 0-1.717.564-2.037 1.405-.094.25-.142.511-.142.774v7.245l.084 1.441c.348 3.277 2.047 6.142 4.682 8.139.045.036.094.07.143.105l.03.023c1.411 1.03 2.989 1.728 4.694 2.072.786.158 1.591.24 2.389.24.739 0 1.481-.067 2.209-.204.088-.029.176-.045.264-.06.023 0 .049-.015.074-.029 1.633-.36 3.148-1.036 4.508-2.025l.029-.031.135-.105c2.627-1.995 4.324-4.862 4.686-8.148L24 10.678V3.445c0-.251-.031-.5-.121-.742l.017.01z" />
	</svg>
	<symbol id="category" viewBox="0 -64 640 640">
		<title>
			category
		</title>
		<path d="M497.941 225.941L286.059 14.059A48 48 0 0 0 252.118 0H48C21.49 0 0 21.49 0 48v204.118a48 48 0 0 0 14.059 33.941l211.882 211.882c18.744 18.745 49.136 18.746 67.882 0l204.118-204.118c18.745-18.745 18.745-49.137 0-67.882zM112 160c-26.51 0-48-21.49-48-48s21.49-48 48-48 48 21.49 48 48-21.49 48-48 48zm513.941 133.823L421.823 497.941c-18.745 18.745-49.137 18.745-67.882 0l-.36-.36L527.64 323.522c16.999-16.999 26.36-39.6 26.36-63.64s-9.362-46.641-26.36-63.64L331.397 0h48.721a48 48 0 0 1 33.941 14.059l211.882 211.882c18.745 18.745 18.745 49.137 0 67.882z" />
	</symbol>
	<symbol id="message2" viewBox="0 0 24 24">
		<title>
			message2
		</title>
		<path d="M20 2H4c-1.103 0-2 .897-2 2v12c0 1.103.897 2 2 2h3v3.767L13.277 18H20c1.103 0 2-.897 2-2V4c0-1.103-.897-2-2-2zm0 14h-7.277L9 18.233V16H4V4h16v12z" />
	</symbol>
	<symbol id="message" viewBox="0 0 24 24">
		<title>
			message
		</title>
		<path d="M21 11.5a8.38 8.38 0 01-.9 3.8 8.5 8.5 0 01-7.6 4.7 8.38 8.38 0 01-3.8-.9L3 21l1.9-5.7a8.38 8.38 0 01-.9-3.8 8.5 8.5 0 014.7-7.6 8.38 8.38 0 013.8-.9h.5a8.48 8.48 0 018 8v.5z" />
	</symbol>
	<symbol id="tiktok" viewBox="0 0 50 50">
		<title>
			tiktok
		</title>
		<path d="M41,4H9C6.243,4,4,6.243,4,9v32c0,2.757,2.243,5,5,5h32c2.757,0,5-2.243,5-5V9C46,6.243,43.757,4,41,4z M37.006,22.323 c-0.227,0.021-0.457,0.035-0.69,0.035c-2.623,0-4.928-1.349-6.269-3.388c0,5.349,0,11.435,0,11.537c0,4.709-3.818,8.527-8.527,8.527 s-8.527-3.818-8.527-8.527s3.818-8.527,8.527-8.527c0.178,0,0.352,0.016,0.527,0.027v4.202c-0.175-0.021-0.347-0.053-0.527-0.053 c-2.404,0-4.352,1.948-4.352,4.352s1.948,4.352,4.352,4.352s4.527-1.894,4.527-4.298c0-0.095,0.042-19.594,0.042-19.594h4.016 c0.378,3.591,3.277,6.425,6.901,6.685V22.323z" />
	</symbol>
	<symbol id="discord" viewBox="0 0 24 24">
		<title>
			discord
		</title>
		<path d="m3.58 21.196h14.259l-.681-2.205 1.629 1.398 1.493 1.338 2.72 2.273v-21.525c-.068-1.338-1.22-2.475-2.648-2.475l-16.767.003c-1.427 0-2.585 1.139-2.585 2.477v16.24c0 1.411 1.156 2.476 2.58 2.476zm10.548-15.513-.033.012.012-.012zm-7.631 1.269c1.833-1.334 3.532-1.27 3.532-1.27l.137.135c-2.243.535-3.26 1.537-3.26 1.537s.272-.133.747-.336c3.021-1.188 6.32-1.102 9.374.402 0 0-1.019-.937-3.124-1.537l.186-.183c.291.001 1.831.055 3.479 1.26 0 0 1.844 3.15 1.844 7.02-.061-.074-1.144 1.666-3.931 1.726 0 0-.472-.534-.808-1 1.63-.468 2.24-1.404 2.24-1.404-.535.337-1.023.537-1.419.737-.609.268-1.219.4-1.828.535-2.884.468-4.503-.315-6.033-.936l-.523-.266s.609.936 2.174 1.404c-.411.469-.818 1.002-.818 1.002-2.786-.066-3.802-1.806-3.802-1.806 0-3.876 1.833-7.02 1.833-7.02z" />
		<path d="m14.308 12.771c.711 0 1.29-.6 1.29-1.34 0-.735-.576-1.335-1.29-1.335v.003c-.708 0-1.288.598-1.29 1.338 0 .734.579 1.334 1.29 1.334z" />
		<path d="m9.69 12.771c.711 0 1.29-.6 1.29-1.34 0-.735-.575-1.335-1.286-1.335l-.004.003c-.711 0-1.29.598-1.29 1.338 0 .734.579 1.334 1.29 1.334z" />
	</symbol>
	<symbol id="twitch" viewBox="0 0 24 24">
		<title>
			twitch
		</title>
		<path d="m.975 4.175v16.694h5.749v3.131h3.139l3.134-3.132h4.705l6.274-6.258v-14.61h-21.434zm3.658-2.09h17.252v11.479l-3.66 3.652h-5.751l-3.134 3.127v-3.127h-4.707z" />
		<path d="m10.385 6.262h2.09v6.26h-2.09z" />
		<path d="m16.133 6.262h2.091v6.26h-2.091z" />
	</symbol>
	<symbol id="facebook" viewBox="0 0 24 24">
		<title>
			facebook
		</title>
		<path d="m3 24h9v-8.25h-3v-3.75h3v-3c0-2.486 2.014-4.5 4.5-4.5h3v3.75h-1.5c-.828 0-1.5-.078-1.5.75v3h3.75l-1.5 3.75h-2.25v8.25h4.5c1.654 0 3-1.346 3-3v-18c0-1.655-1.346-3-3-3h-18c-1.655 0-3 1.345-3 3v18c0 1.654 1.345 3 3 3z" />
	</symbol>
	<symbol id="whatsapp" viewBox="0 0 24 24">
		<title>
			whatsapp
		</title>
		<path d="m17.507 14.307-.009.075c-2.199-1.096-2.429-1.242-2.713-.816-.197.295-.771.964-.944 1.162-.175.195-.349.21-.646.075-.3-.15-1.263-.465-2.403-1.485-.888-.795-1.484-1.77-1.66-2.07-.293-.506.32-.578.878-1.634.1-.21.049-.375-.025-.524-.075-.15-.672-1.62-.922-2.206-.24-.584-.487-.51-.672-.51-.576-.05-.997-.042-1.368.344-1.614 1.774-1.207 3.604.174 5.55 2.714 3.552 4.16 4.206 6.804 5.114.714.227 1.365.195 1.88.121.574-.091 1.767-.721 2.016-1.426.255-.705.255-1.29.18-1.425-.074-.135-.27-.21-.57-.345z" />
		<path d="m20.52 3.449c-7.689-7.433-20.414-2.042-20.419 8.444 0 2.096.549 4.14 1.595 5.945l-1.696 6.162 6.335-1.652c7.905 4.27 17.661-1.4 17.665-10.449 0-3.176-1.24-6.165-3.495-8.411zm1.482 8.417c-.006 7.633-8.385 12.4-15.012 8.504l-.36-.214-3.75.975 1.005-3.645-.239-.375c-4.124-6.565.614-15.145 8.426-15.145 2.654 0 5.145 1.035 7.021 2.91 1.875 1.859 2.909 4.35 2.909 6.99z" />
	</symbol>
	<symbol id="spotify" viewBox="0 0 24 24">
		<title>
			spotify
		</title>
		<path d="m12 24c6.624 0 12-5.376 12-12s-5.376-12-12-12-12 5.376-12 12 5.376 12 12 12zm4.872-6.344v.001c-.807 0-3.356-2.828-10.52-1.36-.189.049-.436.126-.576.126-.915 0-1.09-1.369-.106-1.578 3.963-.875 8.013-.798 11.467 1.268.824.526.474 1.543-.265 1.543zm1.303-3.173c-.113-.03-.08.069-.597-.203-3.025-1.79-7.533-2.512-11.545-1.423-.232.063-.358.126-.576.126-1.071 0-1.355-1.611-.188-1.94 4.716-1.325 9.775-.552 13.297 1.543.392.232.547.533.547.953-.005.522-.411.944-.938.944zm-13.627-7.485c4.523-1.324 11.368-.906 15.624 1.578 1.091.629.662 2.22-.498 2.22l-.001-.001c-.252 0-.407-.063-.625-.189-3.443-2.056-9.604-2.549-13.59-1.436-.175.048-.393.125-.625.125-.639 0-1.127-.499-1.127-1.142 0-.657.407-1.029.842-1.155z" />
	</symbol>
	<symbol id="youtube" viewBox="0 0 24 24">
		<title>
			youtube
		</title>
		<path d="m23.469 5.929.03.196c-.29-1.029-1.073-1.823-2.068-2.112l-.021-.005c-1.871-.508-9.4-.508-9.4-.508s-7.51-.01-9.4.508c-1.014.294-1.798 1.088-2.083 2.096l-.005.021c-.699 3.651-.704 8.038.031 11.947l-.031-.198c.29 1.029 1.073 1.823 2.068 2.112l.021.005c1.869.509 9.4.509 9.4.509s7.509 0 9.4-.509c1.015-.294 1.799-1.088 2.084-2.096l.005-.021c.318-1.698.5-3.652.5-5.648 0-.073 0-.147-.001-.221.001-.068.001-.149.001-.23 0-1.997-.182-3.951-.531-5.846zm-13.861 9.722v-7.293l6.266 3.652z" />
	</symbol>
	<symbol id="github" viewBox="0 0 24 24">
		<title>
			github
		</title>
		<path d="m12 .5c-6.63 0-12 5.28-12 11.792 0 5.211 3.438 9.63 8.205 11.188.6.111.82-.254.82-.567 0-.28-.01-1.022-.015-2.005-3.338.711-4.042-1.582-4.042-1.582-.546-1.361-1.335-1.725-1.335-1.725-1.087-.731.084-.716.084-.716 1.205.082 1.838 1.215 1.838 1.215 1.07 1.803 2.809 1.282 3.495.981.108-.763.417-1.282.76-1.577-2.665-.295-5.466-1.309-5.466-5.827 0-1.287.465-2.339 1.235-3.164-.135-.298-.54-1.497.105-3.121 0 0 1.005-.316 3.3 1.209.96-.262 1.98-.392 3-.398 1.02.006 2.04.136 3 .398 2.28-1.525 3.285-1.209 3.285-1.209.645 1.624.24 2.823.12 3.121.765.825 1.23 1.877 1.23 3.164 0 4.53-2.805 5.527-5.475 5.817.42.354.81 1.077.81 2.182 0 1.578-.015 2.846-.015 3.229 0 .309.21.678.825.56 4.801-1.548 8.236-5.97 8.236-11.173 0-6.512-5.373-11.792-12-11.792z" />
	</symbol>
	<symbol id="twitter" viewBox="0 0 24 24">
		<title>
			twitter
		</title>
		<path d="m21.534 7.113c.976-.693 1.797-1.558 2.466-2.554v-.001c-.893.391-1.843.651-2.835.777 1.02-.609 1.799-1.566 2.165-2.719-.951.567-2.001.967-3.12 1.191-.903-.962-2.19-1.557-3.594-1.557-2.724 0-4.917 2.211-4.917 4.921 0 .39.033.765.114 1.122-4.09-.2-7.71-2.16-10.142-5.147-.424.737-.674 1.58-.674 2.487 0 1.704.877 3.214 2.186 4.089-.791-.015-1.566-.245-2.223-.606v.054c0 2.391 1.705 4.377 3.942 4.835-.401.11-.837.162-1.29.162-.315 0-.633-.018-.931-.084.637 1.948 2.447 3.381 4.597 3.428-1.674 1.309-3.8 2.098-6.101 2.098-.403 0-.79-.018-1.177-.067 2.18 1.405 4.762 2.208 7.548 2.208 8.683 0 14.342-7.244 13.986-14.637z" />
	</symbol>
	<symbol id="instagram" viewBox="0 0 24 24">
		<title>
			instagram
		</title>
		<path d="m12.004 5.838c-3.403 0-6.158 2.758-6.158 6.158 0 3.403 2.758 6.158 6.158 6.158 3.403 0 6.158-2.758 6.158-6.158 0-3.403-2.758-6.158-6.158-6.158zm0 10.155c-2.209 0-3.997-1.789-3.997-3.997s1.789-3.997 3.997-3.997 3.997 1.789 3.997 3.997c.001 2.208-1.788 3.997-3.997 3.997z" />
		<path d="m16.948.076c-2.208-.103-7.677-.098-9.887 0-1.942.091-3.655.56-5.036 1.941-2.308 2.308-2.013 5.418-2.013 9.979 0 4.668-.26 7.706 2.013 9.979 2.317 2.316 5.472 2.013 9.979 2.013 4.624 0 6.22.003 7.855-.63 2.223-.863 3.901-2.85 4.065-6.419.104-2.209.098-7.677 0-9.887-.198-4.213-2.459-6.768-6.976-6.976zm3.495 20.372c-1.513 1.513-3.612 1.378-8.468 1.378-5 0-7.005.074-8.468-1.393-1.685-1.677-1.38-4.37-1.38-8.453 0-5.525-.567-9.504 4.978-9.788 1.274-.045 1.649-.06 4.856-.06l.045.03c5.329 0 9.51-.558 9.761 4.986.057 1.265.07 1.645.07 4.847-.001 4.942.093 6.959-1.394 8.453z" />
		<circle cx="18.406" cy="5.595" r="1.439" />
	</symbol>
	<symbol id="messenger" viewBox="0 0 24 24">
		<title>
			messenger
		</title>
		<path d="m0 11.111c0 3.496 1.744 6.615 4.471 8.652v4.237l4.086-2.242c1.09.301 2.245.465 3.442.465 6.627 0 12-4.974 12-11.111.001-6.137-5.372-11.112-11.999-11.112s-12 4.974-12 11.111zm10.734-3.112 3.13 3.259 5.887-3.259-6.56 6.962-3.055-3.258-5.963 3.259z" />
	</symbol>
	<symbol id="reddit" viewBox="0 0 24 24">
		<title>
			reddit
		</title>
		<path d="m21.325 9.308c-.758 0-1.425.319-1.916.816-1.805-1.268-4.239-2.084-6.936-2.171l1.401-6.406 4.461 1.016c0 1.108.89 2.013 1.982 2.013 1.113 0 2.008-.929 2.008-2.038s-.889-2.038-2.007-2.038c-.779 0-1.451.477-1.786 1.129l-4.927-1.108c-.248-.067-.491.113-.557.365l-1.538 7.062c-2.676.113-5.084.928-6.895 2.197-.491-.518-1.184-.837-1.942-.837-2.812 0-3.733 3.829-1.158 5.138-.091.405-.132.837-.132 1.268 0 4.301 4.775 7.786 10.638 7.786 5.888 0 10.663-3.485 10.663-7.786 0-.431-.045-.883-.156-1.289 2.523-1.314 1.594-5.115-1.203-5.117zm-15.724 5.41c0-1.129.89-2.038 2.008-2.038 1.092 0 1.983.903 1.983 2.038 0 1.109-.89 2.013-1.983 2.013-1.113.005-2.008-.904-2.008-2.013zm10.839 4.798c-1.841 1.868-7.036 1.868-8.878 0-.203-.18-.203-.498 0-.703.177-.18.491-.18.668 0 1.406 1.463 6.07 1.488 7.537 0 .177-.18.491-.18.668 0 .207.206.207.524.005.703zm-.041-2.781c-1.092 0-1.982-.903-1.982-2.011 0-1.129.89-2.038 1.982-2.038 1.113 0 2.008.903 2.008 2.038-.005 1.103-.895 2.011-2.008 2.011z" />
	</symbol>
	<symbol id="rss" viewBox="0 0 24 24">
		<title>
			rss
		</title>
		<circle cx="3.429" cy="20.571" r="3.429" />
		<path d="m11.429 24h4.57c0-8.821-7.178-15.999-15.999-16v4.572c6.302.001 11.429 5.126 11.429 11.428z" />
		<path d="m24 24c0-13.234-10.766-24-24-24v4.571c10.714 0 19.43 8.714 19.43 19.429z" />
	</symbol>
	<symbol id="loupe" viewBox="0 0 512.005 512.005">
		<title>
			loupe
		</title>
		<path d="M505.749,475.587l-145.6-145.6c28.203-34.837,45.184-79.104,45.184-127.317c0-111.744-90.923-202.667-202.667-202.667 S0,90.925,0,202.669s90.923,202.667,202.667,202.667c48.213,0,92.48-16.981,127.317-45.184l145.6,145.6 c4.16,4.16,9.621,6.251,15.083,6.251s10.923-2.091,15.083-6.251C514.091,497.411,514.091,483.928,505.749,475.587z M202.667,362.669c-88.235,0-160-71.765-160-160s71.765-160,160-160s160,71.765,160,160S290.901,362.669,202.667,362.669z" />
	</symbol>
	<symbol id="user" viewBox="0 0 512 512">
		<title>
			user
		</title>
		<path d="M256,0C115.2,0,0,115.2,0,256s115.2,256,256,256s256-115.2,256-256S396.8,0,256,0z M428.8,396.8c-9.6-3.2-16-9.6-25.6-9.6 l-70.4-12.8c-6.4,0-12.8-9.6-12.8-16v-16c3.2-6.4,9.6-16,12.8-22.4c3.2-6.4,9.6-16,12.8-19.2c12.8-12.8,28.8-28.8,32-51.2 c3.2-19.2,0-28.8-3.2-38.4c0-19.2,0-44.8-6.4-64c0-25.6-6.4-38.4-16-51.2c-9.6-9.6-19.2-9.6-28.8-12.8c-3.2,0-9.6,0-9.6-3.2 c-22.4-9.6-38.4-16-57.6-16c-41.6,3.2-96,28.8-112,76.8c-6.4,12.8-6.4,38.4-3.2,57.6v12.8c-6.4,6.4-9.6,16-6.4,35.2 c3.2,19.2,19.2,35.2,32,51.2c3.2,3.2,6.4,12.8,12.8,19.2c3.2,9.6,9.6,16,12.8,22.4v16c0,6.4-6.4,12.8-12.8,16L108.8,384 c-9.6,3.2-19.2,6.4-25.6,9.6C51.2,358.4,32,310.4,32,256c0-124.8,99.2-224,224-224s224,99.2,224,224 C480,310.4,460.8,358.4,428.8,396.8z" />
	</symbol>
	<symbol id="video-filled-camera-silhouette" viewBox="0 0 95.044 95.044">
		<title>
			video-filled-camera-silhouette
		</title>
		<path d="M93.227,23.522c-1.104-0.507-2.408-0.324-3.33,0.471l-18.385,15.83V21.768c0-1.778-1.447-3.226-3.226-3.226H3.225 C1.447,18.542,0,19.989,0,21.768v51.508c0,1.777,1.446,3.226,3.225,3.226h65.062c1.777,0,3.227-1.446,3.227-3.226V55.222 l18.385,15.829c0.922,0.796,2.228,0.978,3.33,0.472c1.106-0.508,1.815-1.613,1.815-2.832V26.353 C95.043,25.135,94.335,24.03,93.227,23.522z" />
	</symbol>
	<symbol id="play-button" viewBox="0 0 477.867 477.867">
		<title>
			play-button
		</title>
		<path d="M238.933,0C106.974,0,0,106.974,0,238.933s106.974,238.933,238.933,238.933s238.933-106.974,238.933-238.933 C477.726,107.033,370.834,0.141,238.933,0z M339.557,246.546c-1.654,3.318-4.343,6.008-7.662,7.662v0.085L195.362,322.56 c-8.432,4.213-18.682,0.794-22.896-7.638c-1.198-2.397-1.815-5.043-1.8-7.722V170.667c-0.004-9.426,7.633-17.07,17.059-17.075 c2.651-0.001,5.266,0.615,7.637,1.8l136.533,68.267C340.331,227.863,343.762,238.11,339.557,246.546z" />
	</symbol>
	<symbol id="video-player" viewBox="0 0 298 298">
		<title>
			video-player
		</title>
		<path d="M298,33c0-13.255-10.745-24-24-24H24C10.745,9,0,19.745,0,33v232c0,13.255,10.745,24,24,24h250c13.255,0,24-10.745,24-24V33 z M91,39h43v34H91V39z M61,259H30v-34h31V259z M61,73H30V39h31V73z M134,259H91v-34h43V259z M123,176.708v-55.417 c0-8.25,5.868-11.302,12.77-6.783l40.237,26.272c6.902,4.519,6.958,11.914,0.056,16.434l-40.321,26.277 C128.84,188.011,123,184.958,123,176.708z M207,259h-43v-34h43V259z M207,73h-43V39h43V73z M268,259h-31v-34h31V259z M268,73h-31V39 h31V73z" />
	</symbol>
	<symbol id="cross-remove-sign" viewBox="0 0 95.939 95.939">
		<title>
			cross-remove-sign
		</title>
		<path d="M62.819,47.97l32.533-32.534c0.781-0.781,0.781-2.047,0-2.828L83.333,0.586C82.958,0.211,82.448,0,81.919,0 c-0.53,0-1.039,0.211-1.414,0.586L47.97,33.121L15.435,0.586c-0.75-0.75-2.078-0.75-2.828,0L0.587,12.608 c-0.781,0.781-0.781,2.047,0,2.828L33.121,47.97L0.587,80.504c-0.781,0.781-0.781,2.047,0,2.828l12.02,12.021 c0.375,0.375,0.884,0.586,1.414,0.586c0.53,0,1.039-0.211,1.414-0.586L47.97,62.818l32.535,32.535 c0.375,0.375,0.884,0.586,1.414,0.586c0.529,0,1.039-0.211,1.414-0.586l12.02-12.021c0.781-0.781,0.781-2.048,0-2.828L62.819,47.97 z" />
	</symbol>
	<symbol id="checkmark-for-verification" viewBox="0 0 97.619 97.618">
		<title>
			checkmark-for-verification
		</title>
		<path d="M96.939,17.358L83.968,5.959c-0.398-0.352-0.927-0.531-1.449-0.494C81.99,5.5,81.496,5.743,81.146,6.142L34.1,59.688 L17.372,37.547c-0.319-0.422-0.794-0.701-1.319-0.773c-0.524-0.078-1.059,0.064-1.481,0.385L0.794,47.567 c-0.881,0.666-1.056,1.92-0.39,2.801l30.974,40.996c0.362,0.479,0.922,0.771,1.522,0.793c0.024,0,0.049,0,0.073,0 c0.574,0,1.122-0.246,1.503-0.68l62.644-71.297C97.85,19.351,97.769,18.086,96.939,17.358z" />
	</symbol>
	<symbol id="programming-code-signs" viewBox="0 0 94.504 94.504">
		<title>
			programming-code-signs
		</title>
		<path d="M93.918,45.833L69.799,21.714c-0.75-0.75-2.077-0.75-2.827,0l-5.229,5.229c-0.781,0.781-0.781,2.047,0,2.828 l17.477,17.475L61.744,64.724c-0.781,0.781-0.781,2.047,0,2.828l5.229,5.229c0.375,0.375,0.884,0.587,1.414,0.587 c0.529,0,1.039-0.212,1.414-0.587l24.117-24.118C94.699,47.881,94.699,46.614,93.918,45.833z" />
		<path d="M32.759,64.724L15.285,47.248l17.477-17.475c0.375-0.375,0.586-0.883,0.586-1.414c0-0.53-0.21-1.039-0.586-1.414 l-5.229-5.229c-0.375-0.375-0.884-0.586-1.414-0.586c-0.53,0-1.039,0.211-1.414,0.586L0.585,45.833 c-0.781,0.781-0.781,2.047,0,2.829L24.704,72.78c0.375,0.375,0.884,0.587,1.414,0.587c0.53,0,1.039-0.212,1.414-0.587l5.229-5.229 C33.542,66.771,33.542,65.505,32.759,64.724z" />
		<path d="M60.967,13.6c-0.254-0.466-0.682-0.812-1.19-0.962l-4.239-1.251c-1.058-0.314-2.172,0.293-2.484,1.352L33.375,79.382 c-0.15,0.509-0.092,1.056,0.161,1.521c0.253,0.467,0.682,0.812,1.19,0.963l4.239,1.251c0.189,0.056,0.38,0.083,0.567,0.083 c0.863,0,1.66-0.564,1.917-1.435l19.679-66.644C61.278,14.612,61.221,14.065,60.967,13.6z" />
	</symbol>
	<symbol id="right-arrow" viewBox="0 0 512 512">
		<title>
			right-arrow
		</title>
		<path d="M506.134,241.843c-0.006-0.006-0.011-0.013-0.018-0.019l-104.504-104c-7.829-7.791-20.492-7.762-28.285,0.068 c-7.792,7.829-7.762,20.492,0.067,28.284L443.558,236H20c-11.046,0-20,8.954-20,20c0,11.046,8.954,20,20,20h423.557 l-70.162,69.824c-7.829,7.792-7.859,20.455-0.067,28.284c7.793,7.831,20.457,7.858,28.285,0.068l104.504-104 c0.006-0.006,0.011-0.013,0.018-0.019C513.968,262.339,513.943,249.635,506.134,241.843z" />
	</symbol>
	<symbol id="cloud-computing" viewBox="0 0 489.4 489.4">
		<title>
			cloud-computing
		</title>
		<path d="M382.4,422.75h-79.1H282h-4.6v-106.1h34.7c8.8,0,14-10,8.8-17.2l-67.5-93.4c-4.3-6-13.2-6-17.5,0l-67.5,93.4 c-5.2,7.2-0.1,17.2,8.8,17.2h34.7v106.1h-4.6H186H94.3c-52.5-2.9-94.3-52-94.3-105.2c0-36.7,19.9-68.7,49.4-86 c-2.7-7.3-4.1-15.1-4.1-23.3c0-37.5,30.3-67.8,67.8-67.8c8.1,0,15.9,1.4,23.2,4.1c21.7-46,68.5-77.9,122.9-77.9 c70.4,0.1,128.4,54,135,122.7c54.1,9.3,95.2,59.4,95.2,116.1C489.4,366.05,442.2,418.55,382.4,422.75z" />
	</symbol>
	<symbol id="live-streaming" viewBox="-16 0 512 512.00113">
		<title>
			live-streaming
		</title>
		<path d="m262.84375 140.558594c-12.699219 12.671875-33.28125 12.671875-45.980469 0-12.695312-12.671875-12.695312-33.21875 0-45.890625 12.699219-12.671875 33.28125-12.671875 45.980469 0 12.695312 12.671875 12.695312 33.21875 0 45.890625zm0 0" />
		<path d="m307.257812 189.726562c-3.960937 0-7.921874-1.511718-10.9375-4.539062-6.03125-6.039062-6.019531-15.824219.019532-21.851562 12.238281-12.214844 18.976562-28.453126 18.976562-45.722657s-6.738281-33.507812-18.976562-45.722656c-6.039063-6.03125-6.050782-15.8125-.019532-21.855469 6.027344-6.039062 15.8125-6.050781 21.851563-.019531 18.089844 18.054687 28.050781 42.058594 28.050781 67.597656 0 25.535157-9.960937 49.542969-28.050781 67.597657-3.015625 3.011718-6.964844 4.515624-10.914063 4.515624zm0 0" />
		<path d="m342.210938 235.222656c-3.960938 0-7.921876-1.511718-10.9375-4.535156-6.03125-6.042969-6.019532-15.824219.019531-21.855469 24.414062-24.367187 37.863281-56.761719 37.863281-91.21875s-13.449219-66.851562-37.863281-91.21875c-6.039063-6.03125-6.050781-15.8125-.019531-21.855469 6.03125-6.039062 15.8125-6.050781 21.851562-.019531 30.265625 30.207031 46.9375 70.371094 46.933594 113.09375 0 42.722657-16.667969 82.890625-46.933594 113.097657-3.015625 3.007812-6.964844 4.511718-10.914062 4.511718zm0 0" />
		<path d="m172.371094 189.726562c-3.949219 0-7.898438-1.503906-10.917969-4.515624-18.089844-18.054688-28.050781-42.0625-28.050781-67.597657 0-25.539062 9.960937-49.542969 28.050781-67.597656 6.039063-6.03125 15.824219-6.023437 21.851563.019531 6.03125 6.039063 6.019531 15.824219-.019532 21.855469-12.238281 12.214844-18.976562 28.453125-18.976562 45.722656s6.738281 33.507813 18.976562 45.722657c6.039063 6.027343 6.050782 15.8125.019532 21.851562-3.015626 3.023438-6.976563 4.539062-10.933594 4.539062zm0 0" />
		<path d="m137.417969 235.222656c-3.953125 0-7.902344-1.503906-10.917969-4.515625-30.265625-30.207031-46.933594-70.371093-46.933594-113.09375 0-42.726562 16.667969-82.890625 46.933594-113.097656 6.039062-6.027344 15.824219-6.019531 21.851562.023437 6.03125 6.039063 6.019532 15.820313-.019531 21.851563-24.414062 24.367187-37.863281 56.761719-37.863281 91.21875s13.449219 66.855469 37.863281 91.222656c6.039063 6.03125 6.050781 15.8125.019531 21.855469-3.015624 3.023438-6.976562 4.535156-10.933593 4.535156zm0 0" />
		<path d="m443.480469 261.9375h-407.332031c-19.964844 0-36.148438 16.183594-36.148438 36.144531v177.769531c0 19.964844 16.183594 36.148438 36.148438 36.148438h407.328124c19.964844 0 36.148438-16.183594 36.148438-36.148438v-177.769531c0-19.960937-16.183594-36.144531-36.144531-36.144531zm-324.609375 203.683594h-56.933594c-8.53125 0-15.449219-6.917969-15.449219-15.453125v-126.398438c0-8.53125 6.917969-15.453125 15.449219-15.453125 8.535156 0 15.453125 6.917969 15.453125 15.453125v110.945313h41.480469c8.535156 0 15.453125 6.917968 15.453125 15.453125 0 8.535156-6.917969 15.453125-15.453125 15.453125zm63.328125-15.453125c0 8.535156-6.917969 15.453125-15.453125 15.453125s-15.453125-6.917969-15.453125-15.453125v-126.398438c0-8.53125 6.917969-15.453125 15.453125-15.453125s15.453125 6.917969 15.453125 15.453125zm130.015625-121.929688-38.160156 126.394531c-.003907.011719-.007813.023438-.011719.035157-4.144531 14.144531-25.273438 13.796875-29.5625 0-.003907-.011719-.007813-.023438-.011719-.035157l-38.160156-126.394531c-2.464844-8.171875 2.15625-16.792969 10.328125-19.261719 8.164062-2.464843 16.792969 2.15625 19.257812 10.328126l23.367188 77.394531 23.367187-77.394531c2.46875-8.171876 11.089844-12.796876 19.261719-10.328126 8.167969 2.46875 12.792969 11.089844 10.324219 19.261719zm95.066406 35.320313c8.535156 0 15.453125 6.917968 15.453125 15.453125 0 8.53125-6.917969 15.453125-15.453125 15.453125h-43.851562v40.25h52.175781c8.535156 0 15.453125 6.917968 15.453125 15.453125 0 8.535156-6.917969 15.453125-15.453125 15.453125h-67.628907c-8.535156 0-15.453124-6.917969-15.453124-15.453125v-126.398438c0-8.53125 6.917968-15.453125 15.453124-15.453125h69.710938c8.53125 0 15.453125 6.917969 15.453125 15.453125 0 8.535157-6.921875 15.453125-15.453125 15.453125h-54.261719v24.335938zm0 0" />
	</symbol>
	<symbol id="envelope" viewBox="0 0 512 512">
		<title>
			envelope
		</title>
		<path d="M10.688,95.156C80.958,154.667,204.26,259.365,240.5,292.01c4.865,4.406,10.083,6.646,15.5,6.646 c5.406,0,10.615-2.219,15.469-6.604c36.271-32.677,159.573-137.385,229.844-196.896c4.375-3.698,5.042-10.198,1.5-14.719 C494.625,69.99,482.417,64,469.333,64H42.667c-13.083,0-25.292,5.99-33.479,16.438C5.646,84.958,6.313,91.458,10.688,95.156z" />
		<path d="M505.813,127.406c-3.781-1.76-8.229-1.146-11.375,1.542C416.51,195.01,317.052,279.688,285.76,307.885 c-17.563,15.854-41.938,15.854-59.542-0.021c-33.354-30.052-145.042-125-208.656-178.917c-3.167-2.688-7.625-3.281-11.375-1.542 C2.417,129.156,0,132.927,0,137.083v268.25C0,428.865,19.135,448,42.667,448h426.667C492.865,448,512,428.865,512,405.333 v-268.25C512,132.927,509.583,129.146,505.813,127.406z" />
	</symbol>
	<symbol id="steam-logo" viewBox="0 0 13.082 13.082">
		<title>
			steam-logo
		</title>
		<path style="fill:#030104;" d="M4.303,10.075L3.016,9.578c0.172,0.691,0.796,1.203,1.541,1.203c0.877,0,1.589-0.711,1.589-1.589 c0-0.876-0.712-1.588-1.589-1.588c-0.316,0-0.61,0.093-0.857,0.252l1.271,0.49c0.477,0.185,0.715,0.721,0.531,1.198 C5.317,10.022,4.781,10.261,4.303,10.075z" />
		<path style="fill:#030104;" d="M9.206,6.364c1.086,0,1.969-0.883,1.969-1.969s-0.883-1.969-1.969-1.969 c-1.085,0-1.969,0.883-1.969,1.969C7.237,5.48,8.121,6.364,9.206,6.364z M9.206,3.008c0.766,0,1.388,0.622,1.388,1.387 S9.972,5.782,9.206,5.782c-0.765,0-1.387-0.622-1.387-1.387S8.441,3.008,9.206,3.008z" />
		<path style="fill:#030104;" d="M11.367,0.001H1.715C0.767,0.001,0,0.769,0,1.716v4.709l2.495,0.964 C2.978,6.83,3.686,6.472,4.48,6.459l1.499-2c0-1.773,1.438-3.21,3.21-3.21c1.773,0,3.21,1.437,3.21,3.21 c0,0.973-0.434,1.845-1.118,2.434l0,0l0,0c-0.563,0.483-1.293,0.776-2.092,0.776c-0.084,0-0.167-0.004-0.249-0.011L7.198,8.971 c0.004,0.055,0.006,0.111,0.006,0.167c0,1.48-1.2,2.682-2.68,2.682s-2.68-1.201-2.68-2.682c0-0.004,0-0.01,0-0.015L0,8.411v2.955 c0,0.947,0.768,1.715,1.715,1.715h9.652c0.947,0,1.715-0.768,1.715-1.715V1.717C13.082,0.77,12.314,0.001,11.367,0.001z" />
	</symbol>
	<symbol id="search" viewBox="0 0 124.524 124.524">
		<title>
			search
		</title>
		<path d="M51,102.05c10.5,0,20.2-3.2,28.3-8.6l29.3,29.3c2.301,2.3,6.101,2.3,8.5,0l5.7-5.7c2.3-2.3,2.3-6.1,0-8.5L93.4,79.35 c5.399-8.1,8.6-17.8,8.6-28.3c0-28.1-22.9-51-51-51c-28.1,0-51,22.9-51,51C0,79.149,22.8,102.05,51,102.05z M51,20.05 c17.1,0,31,13.9,31,31c0,17.1-13.9,31-31,31c-17.1,0-31-13.9-31-31C20,33.95,33.9,20.05,51,20.05z" />
	</symbol>
	<symbol id="profile-user" viewBox="0 0 45.532 45.532">
		<title>
			profile-user
		</title>
		<path d="M22.766,0.001C10.194,0.001,0,10.193,0,22.766s10.193,22.765,22.766,22.765c12.574,0,22.766-10.192,22.766-22.765 S35.34,0.001,22.766,0.001z M22.766,6.808c4.16,0,7.531,3.372,7.531,7.53c0,4.159-3.371,7.53-7.531,7.53 c-4.158,0-7.529-3.371-7.529-7.53C15.237,10.18,18.608,6.808,22.766,6.808z M22.761,39.579c-4.149,0-7.949-1.511-10.88-4.012 c-0.714-0.609-1.126-1.502-1.126-2.439c0-4.217,3.413-7.592,7.631-7.592h8.762c4.219,0,7.619,3.375,7.619,7.592 c0,0.938-0.41,1.829-1.125,2.438C30.712,38.068,26.911,39.579,22.761,39.579z" />
	</symbol>
	<symbol id="user-1" viewBox="0 0 460.8 460.8">
		<title>
			user-1
		</title>
		<g>
			<g>
				<path d="M230.432,0c-65.829,0-119.641,53.812-119.641,119.641s53.812,119.641,119.641,119.641s119.641-53.812,119.641-119.641 S296.261,0,230.432,0z" />
			</g>
		</g>
		<g>
			<g>
				<path d="M435.755,334.89c-3.135-7.837-7.314-15.151-12.016-21.943c-24.033-35.527-61.126-59.037-102.922-64.784 c-5.224-0.522-10.971,0.522-15.151,3.657c-21.943,16.196-48.065,24.555-75.233,24.555s-53.29-8.359-75.233-24.555 c-4.18-3.135-9.927-4.702-15.151-3.657c-41.796,5.747-79.412,29.257-102.922,64.784c-4.702,6.792-8.882,14.629-12.016,21.943 c-1.567,3.135-1.045,6.792,0.522,9.927c4.18,7.314,9.404,14.629,14.106,20.898c7.314,9.927,15.151,18.808,24.033,27.167 c7.314,7.314,15.673,14.106,24.033,20.898c41.273,30.825,90.906,47.02,142.106,47.02s100.833-16.196,142.106-47.02 c8.359-6.269,16.718-13.584,24.033-20.898c8.359-8.359,16.718-17.241,24.033-27.167c5.224-6.792,9.927-13.584,14.106-20.898 C436.8,341.682,437.322,338.024,435.755,334.89z" />
			</g>
		</g>
	</symbol>
	<symbol id="power-button-off" viewBox="0 0 475.085 475.085">
		<title>
			power-button-off
		</title>
		<path d="M237.545,255.816c9.899,0,18.468-3.609,25.696-10.848c7.23-7.229,10.854-15.799,10.854-25.694V36.547 c0-9.9-3.62-18.464-10.854-25.693C256.014,3.617,247.444,0,237.545,0c-9.9,0-18.464,3.621-25.697,10.854 c-7.233,7.229-10.85,15.797-10.85,25.693v182.728c0,9.895,3.617,18.464,10.85,25.694 C219.081,252.207,227.648,255.816,237.545,255.816z" />
		<path d="M433.836,157.887c-15.325-30.642-36.878-56.339-64.666-77.084c-7.994-6.09-17.035-8.47-27.123-7.139 c-10.089,1.333-18.083,6.091-23.983,14.273c-6.091,7.993-8.418,16.986-6.994,26.979c1.423,9.998,6.139,18.037,14.133,24.128 c18.645,14.084,33.072,31.312,43.25,51.678c10.184,20.364,15.27,42.065,15.27,65.091c0,19.801-3.854,38.688-11.561,56.678 c-7.706,17.987-18.13,33.544-31.265,46.679c-13.135,13.131-28.688,23.551-46.678,31.261c-17.987,7.71-36.878,11.57-56.673,11.57 c-19.792,0-38.684-3.86-56.671-11.57c-17.989-7.71-33.547-18.13-46.682-31.261c-13.129-13.135-23.551-28.691-31.261-46.679 c-7.708-17.99-11.563-36.877-11.563-56.678c0-23.026,5.092-44.724,15.274-65.091c10.183-20.364,24.601-37.591,43.253-51.678 c7.994-6.095,12.703-14.133,14.133-24.128c1.427-9.989-0.903-18.986-6.995-26.979c-5.901-8.182-13.844-12.941-23.839-14.273 c-9.994-1.332-19.085,1.049-27.268,7.139c-27.792,20.745-49.344,46.442-64.669,77.084c-15.324,30.646-22.983,63.288-22.983,97.927 c0,29.697,5.806,58.054,17.415,85.082c11.613,27.028,27.218,50.34,46.826,69.948c19.602,19.603,42.919,35.215,69.949,46.815 c27.028,11.615,55.388,17.426,85.08,17.426c29.693,0,58.052-5.811,85.081-17.426c27.031-11.604,50.347-27.213,69.952-46.815 c19.602-19.602,35.207-42.92,46.818-69.948s17.412-55.392,17.412-85.082C456.809,221.174,449.16,188.532,433.836,157.887z" />
	</symbol>
	<symbol id="calendar-with-spring-binder-and-date-blocks" viewBox="0 0 511.634 511.634">
		<title>
			calendar-with-spring-binder-and-date-blocks
		</title>
		<path d="M482.513,83.942c-7.225-7.233-15.797-10.85-25.694-10.85h-36.541v-27.41c0-12.56-4.477-23.315-13.422-32.261 C397.906,4.475,387.157,0,374.591,0h-18.268c-12.565,0-23.318,4.475-32.264,13.422c-8.949,8.945-13.422,19.701-13.422,32.261v27.41 h-109.63v-27.41c0-12.56-4.475-23.315-13.422-32.261C178.64,4.475,167.886,0,155.321,0H137.05 c-12.562,0-23.317,4.475-32.264,13.422c-8.945,8.945-13.421,19.701-13.421,32.261v27.41H54.823c-9.9,0-18.464,3.617-25.697,10.85 c-7.233,7.232-10.85,15.8-10.85,25.697v365.453c0,9.89,3.617,18.456,10.85,25.693c7.232,7.231,15.796,10.849,25.697,10.849h401.989 c9.897,0,18.47-3.617,25.694-10.849c7.234-7.234,10.852-15.804,10.852-25.693V109.639 C493.357,99.739,489.743,91.175,482.513,83.942z M137.047,475.088H54.823v-82.23h82.224V475.088z M137.047,374.59H54.823v-91.358 h82.224V374.59z M137.047,264.951H54.823v-82.223h82.224V264.951z M130.627,134.333c-1.809-1.809-2.712-3.946-2.712-6.423V45.686 c0-2.474,0.903-4.617,2.712-6.423c1.809-1.809,3.946-2.712,6.423-2.712h18.271c2.474,0,4.617,0.903,6.423,2.712 c1.809,1.807,2.714,3.949,2.714,6.423v82.224c0,2.478-0.909,4.615-2.714,6.423c-1.807,1.809-3.946,2.712-6.423,2.712H137.05 C134.576,137.046,132.436,136.142,130.627,134.333z M246.683,475.088h-91.365v-82.23h91.365V475.088z M246.683,374.59h-91.365 v-91.358h91.365V374.59z M246.683,264.951h-91.365v-82.223h91.365V264.951z M356.323,475.088h-91.364v-82.23h91.364V475.088z M356.323,374.59h-91.364v-91.358h91.364V374.59z M356.323,264.951h-91.364v-82.223h91.364V264.951z M349.896,134.333 c-1.807-1.809-2.707-3.946-2.707-6.423V45.686c0-2.474,0.9-4.617,2.707-6.423c1.808-1.809,3.949-2.712,6.427-2.712h18.268 c2.478,0,4.617,0.903,6.427,2.712c1.808,1.807,2.707,3.949,2.707,6.423v82.224c0,2.478-0.903,4.615-2.707,6.423 c-1.807,1.809-3.949,2.712-6.427,2.712h-18.268C353.846,137.046,351.697,136.142,349.896,134.333z M456.812,475.088h-82.228v-82.23 h82.228V475.088z M456.812,374.59h-82.228v-91.358h82.228V374.59z M456.812,264.951h-82.228v-82.223h82.228V264.951z" />
	</symbol>
	<symbol id="sort-down" viewBox="0 0 292.362 292.362">
		<title>
			sort-down
		</title>
		<path d="M286.935,69.377c-3.614-3.617-7.898-5.424-12.848-5.424H18.274c-4.952,0-9.233,1.807-12.85,5.424 C1.807,72.998,0,77.279,0,82.228c0,4.948,1.807,9.229,5.424,12.847l127.907,127.907c3.621,3.617,7.902,5.428,12.85,5.428 s9.233-1.811,12.847-5.428L286.935,95.074c3.613-3.617,5.427-7.898,5.427-12.847C292.362,77.279,290.548,72.998,286.935,69.377z" />
	</symbol>
	<symbol id="home" viewBox="0 0 460.298 460.297">
		<title>
			home
		</title>
		<path d="M230.149,120.939L65.986,256.274c0,0.191-0.048,0.472-0.144,0.855c-0.094,0.38-0.144,0.656-0.144,0.852v137.041 c0,4.948,1.809,9.236,5.426,12.847c3.616,3.613,7.898,5.431,12.847,5.431h109.63V303.664h73.097v109.64h109.629 c4.948,0,9.236-1.814,12.847-5.435c3.617-3.607,5.432-7.898,5.432-12.847V257.981c0-0.76-0.104-1.334-0.288-1.707L230.149,120.939 z" />
		<path d="M457.122,225.438L394.6,173.476V56.989c0-2.663-0.856-4.853-2.574-6.567c-1.704-1.712-3.894-2.568-6.563-2.568h-54.816 c-2.666,0-4.855,0.856-6.57,2.568c-1.711,1.714-2.566,3.905-2.566,6.567v55.673l-69.662-58.245 c-6.084-4.949-13.318-7.423-21.694-7.423c-8.375,0-15.608,2.474-21.698,7.423L3.172,225.438c-1.903,1.52-2.946,3.566-3.14,6.136 c-0.193,2.568,0.472,4.811,1.997,6.713l17.701,21.128c1.525,1.712,3.521,2.759,5.996,3.142c2.285,0.192,4.57-0.476,6.855-1.998 L230.149,95.817l197.57,164.741c1.526,1.328,3.521,1.991,5.996,1.991h0.858c2.471-0.376,4.463-1.43,5.996-3.138l17.703-21.125 c1.522-1.906,2.189-4.145,1.991-6.716C460.068,229.007,459.021,226.961,457.122,225.438z" />
	</symbol>
	<symbol id="right-chevron" viewBox="0 0 444.819 444.819">
		<title>
			right-chevron
		</title>
		<path d="M352.025,196.712L165.884,10.848C159.029,3.615,150.469,0,140.187,0c-10.282,0-18.842,3.619-25.697,10.848L92.792,32.264 c-7.044,7.043-10.566,15.604-10.566,25.692c0,9.897,3.521,18.56,10.566,25.981l138.753,138.473L92.786,361.168 c-7.042,7.043-10.564,15.604-10.564,25.693c0,9.896,3.521,18.562,10.564,25.98l21.7,21.413 c7.043,7.043,15.612,10.564,25.697,10.564c10.089,0,18.656-3.521,25.697-10.564l186.145-185.864 c7.046-7.423,10.571-16.084,10.571-25.981C362.597,212.321,359.071,203.755,352.025,196.712z" />
	</symbol>
	<symbol id="padlock" viewBox="0 0 401.998 401.998">
		<title>
			padlock
		</title>
		<path d="M357.45,190.721c-5.331-5.33-11.8-7.993-19.417-7.993h-9.131v-54.821c0-35.022-12.559-65.093-37.685-90.218 C266.093,12.563,236.025,0,200.998,0c-35.026,0-65.1,12.563-90.222,37.688C85.65,62.814,73.091,92.884,73.091,127.907v54.821 h-9.135c-7.611,0-14.084,2.663-19.414,7.993c-5.33,5.326-7.994,11.799-7.994,19.417V374.59c0,7.611,2.665,14.086,7.994,19.417 c5.33,5.325,11.803,7.991,19.414,7.991H338.04c7.617,0,14.085-2.663,19.417-7.991c5.325-5.331,7.994-11.806,7.994-19.417V210.135 C365.455,202.523,362.782,196.051,357.45,190.721z M274.087,182.728H127.909v-54.821c0-20.175,7.139-37.402,21.414-51.675 c14.277-14.275,31.501-21.411,51.678-21.411c20.179,0,37.399,7.135,51.677,21.411c14.271,14.272,21.409,31.5,21.409,51.675V182.728 z" />
	</symbol>
	<symbol id="instagram-symbol" viewBox="0 0 438.536 438.536">
		<title>
			instagram-symbol
		</title>
		<path d="M421.981,16.562C410.941,5.519,397.711,0,382.298,0H56.248C40.83,0,27.604,5.521,16.561,16.562 C5.52,27.6,0.001,40.828,0.001,56.243V382.29c0,15.413,5.518,28.644,16.56,39.683c11.043,11.04,24.272,16.563,39.687,16.563 h326.046c15.41,0,28.644-5.523,39.684-16.563c11.043-11.039,16.557-24.27,16.557-39.683V56.243 C438.534,40.825,433.021,27.604,421.981,16.562z M157.462,158.025c17.224-16.652,37.924-24.982,62.097-24.982 c24.36,0,45.153,8.33,62.381,24.982c17.228,16.655,25.837,36.785,25.837,60.386c0,23.598-8.609,43.729-25.837,60.379 c-17.228,16.659-38.014,24.988-62.381,24.988c-24.172,0-44.87-8.336-62.097-24.988c-17.228-16.652-25.841-36.781-25.841-60.379 C131.621,194.81,140.234,174.681,157.462,158.025z M388.865,370.589c0,4.945-1.718,9.083-5.141,12.416 c-3.433,3.33-7.519,4.996-12.282,4.996h-305.2c-4.948,0-9.091-1.666-12.419-4.996c-3.333-3.326-4.998-7.471-4.998-12.416V185.575 H89.08c-3.805,11.993-5.708,24.462-5.708,37.402c0,36.553,13.322,67.715,39.969,93.511c26.65,25.786,58.721,38.685,96.217,38.685 c24.744,0,47.583-5.903,68.527-17.703c20.937-11.807,37.486-27.839,49.676-48.112c12.183-20.272,18.274-42.4,18.274-66.38 c0-12.94-1.91-25.406-5.715-37.402h38.547v185.014H388.865z M388.865,115.626c0,5.52-1.903,10.184-5.716,13.99 c-3.805,3.809-8.466,5.711-13.989,5.711h-49.676c-5.517,0-10.185-1.903-13.99-5.711c-3.806-3.806-5.708-8.47-5.708-13.99V68.522 c0-5.33,1.902-9.945,5.708-13.848c3.806-3.901,8.474-5.854,13.99-5.854h49.676c5.523,0,10.185,1.952,13.989,5.854 c3.812,3.903,5.716,8.518,5.716,13.848V115.626z" />
	</symbol>
	<symbol id="like" viewBox="0 0 512 512">
		<title>
			like
		</title>
		<path d="M376,30c-27.783,0-53.255,8.804-75.707,26.168c-21.525,16.647-35.856,37.85-44.293,53.268 c-8.437-15.419-22.768-36.621-44.293-53.268C189.255,38.804,163.783,30,136,30C58.468,30,0,93.417,0,177.514 c0,90.854,72.943,153.015,183.369,247.118c18.752,15.981,40.007,34.095,62.099,53.414C248.38,480.596,252.12,482,256,482 s7.62-1.404,10.532-3.953c22.094-19.322,43.348-37.435,62.111-53.425C439.057,330.529,512,268.368,512,177.514 C512,93.417,453.532,30,376,30z" />
	</symbol>
	<symbol id="code" viewBox="0 0 522.468 522.469">
		<title>
			code
		</title>
		<path d="M325.762,70.513l-17.706-4.854c-2.279-0.76-4.524-0.521-6.707,0.715c-2.19,1.237-3.669,3.094-4.429,5.568L190.426,440.53 c-0.76,2.475-0.522,4.809,0.715,6.995c1.237,2.19,3.09,3.665,5.568,4.425l17.701,4.856c2.284,0.766,4.521,0.526,6.71-0.712 c2.19-1.243,3.666-3.094,4.425-5.564L332.042,81.936c0.759-2.474,0.523-4.808-0.716-6.999 C330.088,72.747,328.237,71.272,325.762,70.513z" />
		<path d="M166.167,142.465c0-2.474-0.953-4.665-2.856-6.567l-14.277-14.276c-1.903-1.903-4.093-2.857-6.567-2.857 s-4.665,0.955-6.567,2.857L2.856,254.666C0.95,256.569,0,258.759,0,261.233c0,2.474,0.953,4.664,2.856,6.566l133.043,133.044 c1.902,1.906,4.089,2.854,6.567,2.854s4.665-0.951,6.567-2.854l14.277-14.268c1.903-1.902,2.856-4.093,2.856-6.57 c0-2.471-0.953-4.661-2.856-6.563L51.107,261.233l112.204-112.201C165.217,147.13,166.167,144.939,166.167,142.465z" />
		<path d="M519.614,254.663L386.567,121.619c-1.902-1.902-4.093-2.857-6.563-2.857c-2.478,0-4.661,0.955-6.57,2.857l-14.271,14.275 c-1.902,1.903-2.851,4.09-2.851,6.567s0.948,4.665,2.851,6.567l112.206,112.204L359.163,373.442 c-1.902,1.902-2.851,4.093-2.851,6.563c0,2.478,0.948,4.668,2.851,6.57l14.271,14.268c1.909,1.906,4.093,2.854,6.57,2.854 c2.471,0,4.661-0.951,6.563-2.854L519.614,267.8c1.903-1.902,2.854-4.096,2.854-6.57 C522.468,258.755,521.517,256.565,519.614,254.663z" />
	</symbol>
	<symbol id="sent-mail" viewBox="0 0 334.5 334.5">
		<title>
			sent-mail
		</title>
		<path d="M332.797,13.699c-1.489-1.306-3.608-1.609-5.404-0.776L2.893,163.695c-1.747,0.812-2.872,2.555-2.893,4.481 s1.067,3.693,2.797,4.542l91.833,45.068c1.684,0.827,3.692,0.64,5.196-0.484l89.287-66.734l-70.094,72.1 c-1,1.029-1.51,2.438-1.4,3.868l6.979,90.889c0.155,2.014,1.505,3.736,3.424,4.367c0.513,0.168,1.04,0.25,1.561,0.25 c1.429,0,2.819-0.613,3.786-1.733l48.742-56.482l60.255,28.79c1.308,0.625,2.822,0.651,4.151,0.073 c1.329-0.579,2.341-1.705,2.775-3.087L334.27,18.956C334.864,17.066,334.285,15.005,332.797,13.699z" />
	</symbol>
	<symbol id="reply-arrow" viewBox="0 0 511.633 511.633">
		<title>
			reply-arrow
		</title>
		<path d="M463.375,183.726c-35.782-36.735-92.789-57.764-171.02-63.094V45.83c0-7.994-3.713-13.608-11.136-16.846 c-7.803-3.23-14.466-1.902-19.985,3.999L115.06,179.161c-3.618,3.621-5.424,7.902-5.424,12.85c0,4.949,1.807,9.229,5.424,12.847 l146.178,146.177c3.432,3.617,7.71,5.425,12.85,5.425c2.283,0,4.661-0.476,7.136-1.427c7.423-3.238,11.139-8.847,11.139-16.845 v-71.663c30.642,2.475,56.097,7.471,76.376,14.989c20.27,7.519,36.494,18.034,48.677,31.549 c28.362,31.405,38.451,85.171,30.266,161.311c-0.376,4.951,1.807,8.186,6.567,9.708c0.571,0.192,1.427,0.284,2.569,0.284 c3.806,0,6.468-1.618,7.994-4.853l5.709-11.42c2.662-5.331,6.516-13.945,11.56-25.841c5.041-11.901,9.616-23.794,13.709-35.692 c4.093-11.893,7.755-25.026,10.992-39.396c3.234-14.376,4.853-27.079,4.853-38.116 C511.63,265.094,495.546,216.657,463.375,183.726z" />
		<path d="M63.953,192.011c0-4.952,1.809-9.233,5.424-12.85L182.725,65.531V45.83c0-7.994-3.715-13.608-11.138-16.846 c-7.804-3.23-14.465-1.902-19.983,3.999L5.424,179.161C1.809,182.781,0,187.062,0,192.011c0,4.949,1.809,9.229,5.424,12.847 l146.18,146.177c3.425,3.617,7.708,5.425,12.85,5.425c2.284,0,4.663-0.476,7.137-1.427c7.423-3.238,11.138-8.847,11.138-16.845 v-19.985L69.377,204.857C65.762,201.24,63.953,196.962,63.953,192.011z" />
	</symbol>
	<symbol id="arrow-up" viewBox="0 0 32 32">
		<title>
			arrow-up
		</title>
		<path d="M27.414 12.586l-10-10c-0.781-0.781-2.047-0.781-2.828 0l-10 10c-0.781 0.781-0.781 2.047 0 2.828s2.047 0.781 2.828 0l6.586-6.586v19.172c0 1.105 0.895 2 2 2s2-0.895 2-2v-19.172l6.586 6.586c0.39 0.39 0.902 0.586 1.414 0.586s1.024-0.195 1.414-0.586c0.781-0.781 0.781-2.047 0-2.828z">
		</path>
	</symbol>
	<symbol id="steam" viewBox="0 0 32 32">
		<path d="M22 9c0-1.657 1.343-3 3-3s3 1.343 3 3c0 1.657-1.343 3-3 3s-3-1.343-3-3zM29.95 4.050c-2.734-2.734-7.166-2.734-9.9 0-1.112 1.112-1.771 2.505-1.979 3.95v0l-6.397 9.695c-0.86 0.044-1.712 0.263-2.499 0.657l-4.934-3.857c-1.142-0.893-2.792-0.691-3.685 0.451s-0.691 2.792 0.452 3.685l4.873 3.809c-0.53 2.087 0.021 4.392 1.654 6.025 2.466 2.466 6.464 2.466 8.929 0 1.515-1.515 2.098-3.607 1.752-5.568l7.783-6.968c1.445-0.207 2.838-0.867 3.95-1.979 2.734-2.734 2.734-7.166 0-9.899zM12 28.209c-2.325 0-4.209-1.884-4.209-4.209 0-0.022 0.001-0.044 0.002-0.066l2.091 1.634c0.48 0.375 1.049 0.557 1.615 0.557 0.78 0 1.552-0.346 2.070-1.009 0.893-1.142 0.691-2.792-0.451-3.685l-1.984-1.551c0.28-0.059 0.57-0.090 0.868-0.090 2.325 0 4.209 1.884 4.209 4.209s-1.885 4.209-4.209 4.209zM25 14c-2.761 0-5-2.239-5-5s2.239-5 5-5 5 2.239 5 5-2.239 5-5 5z">
		</path>
	</symbol>
	<symbol id="loop2" viewBox="0 0 32 32">
		<path d="M27.802 5.197c-2.925-3.194-7.13-5.197-11.803-5.197-8.837 0-16 7.163-16 16h3c0-7.18 5.82-13 13-13 3.844 0 7.298 1.669 9.678 4.322l-4.678 4.678h11v-11l-4.198 4.197z">
		</path>
		<path d="M29 16c0 7.18-5.82 13-13 13-3.844 0-7.298-1.669-9.678-4.322l4.678-4.678h-11v11l4.197-4.197c2.925 3.194 7.13 5.197 11.803 5.197 8.837 0 16-7.163 16-16h-3z">
		</path>
	</symbol>
	<symbol id="link" viewBox="0 0 32 32">
		<path d="M13.757 19.868c-0.416 0-0.832-0.159-1.149-0.476-2.973-2.973-2.973-7.81 0-10.783l6-6c1.44-1.44 3.355-2.233 5.392-2.233s3.951 0.793 5.392 2.233c2.973 2.973 2.973 7.81 0 10.783l-2.743 2.743c-0.635 0.635-1.663 0.635-2.298 0s-0.635-1.663 0-2.298l2.743-2.743c1.706-1.706 1.706-4.481 0-6.187-0.826-0.826-1.925-1.281-3.094-1.281s-2.267 0.455-3.094 1.281l-6 6c-1.706 1.706-1.706 4.481 0 6.187 0.635 0.635 0.635 1.663 0 2.298-0.317 0.317-0.733 0.476-1.149 0.476z">
		</path>
		<path d="M8 31.625c-2.037 0-3.952-0.793-5.392-2.233-2.973-2.973-2.973-7.81 0-10.783l2.743-2.743c0.635-0.635 1.664-0.635 2.298 0s0.635 1.663 0 2.298l-2.743 2.743c-1.706 1.706-1.706 4.481 0 6.187 0.826 0.826 1.925 1.281 3.094 1.281s2.267-0.455 3.094-1.281l6-6c1.706-1.706 1.706-4.481 0-6.187-0.635-0.635-0.635-1.663 0-2.298s1.663-0.635 2.298 0c2.973 2.973 2.973 7.81 0 10.783l-6 6c-1.44 1.44-3.355 2.233-5.392 2.233z">
		</path>
	</symbol>
	<symbol id="quotes-left" viewBox="0 0 32 32">
		<path d="M7.031 14c3.866 0 7 3.134 7 7s-3.134 7-7 7-7-3.134-7-7l-0.031-1c0-7.732 6.268-14 14-14v4c-2.671 0-5.182 1.040-7.071 2.929-0.364 0.364-0.695 0.751-0.995 1.157 0.357-0.056 0.724-0.086 1.097-0.086zM25.031 14c3.866 0 7 3.134 7 7s-3.134 7-7 7-7-3.134-7-7l-0.031-1c0-7.732 6.268-14 14-14v4c-2.671 0-5.182 1.040-7.071 2.929-0.364 0.364-0.695 0.751-0.995 1.157 0.358-0.056 0.724-0.086 1.097-0.086z">
		</path>
	</symbol>
	<symbol id="quotes-right" viewBox="0 0 32 32">
		<path d="M25 20c-3.866 0-7-3.134-7-7s3.134-7 7-7 7 3.134 7 7l0.031 1c0 7.732-6.268 14-14 14v-4c2.671 0 5.182-1.040 7.071-2.929 0.364-0.364 0.695-0.75 0.995-1.157-0.357 0.056-0.724 0.086-1.097 0.086zM7 20c-3.866 0-7-3.134-7-7s3.134-7 7-7 7 3.134 7 7l0.031 1c0 7.732-6.268 14-14 14v-4c2.671 0 5.182-1.040 7.071-2.929 0.364-0.364 0.695-0.75 0.995-1.157-0.357 0.056-0.724 0.086-1.097 0.086z">
		</path>
	</symbol>
</svg>
