<?xml version="1.0" encoding="UTF-8" standalone="no"?>
<!DOCTYPE svg PUBLIC "-//W3C//DTD SVG 1.1//EN" "http://www.w3.org/Graphics/SVG/1.1/DTD/svg11.dtd">
<svg width="100%" height="100%" viewBox="0 0 1250 1250" version="1.1" xmlns="http://www.w3.org/2000/svg" xmlns:xlink="http://www.w3.org/1999/xlink" xml:space="preserve" xmlns:serif="http://www.serif.com/" style="fill-rule:evenodd;clip-rule:evenodd;stroke-linejoin:round;stroke-miterlimit:2;">
    <g transform="matrix(1.13607,0,0,1.13607,-85.0464,87.4577)">
        <path d="M1133.46,534.074C1133.46,688.848 1064.29,827.449 955.192,920.703C950.099,897.152 942.196,849.626 953.151,818.754C968.181,776.384 966.814,768.869 972.969,749.731C979.117,730.594 983.898,709.415 977.75,704.634C971.596,699.84 955.192,693.692 946.31,694.372C942.59,694.659 856.795,719.246 748.343,750.93C745.197,746.579 742.656,741.224 742.656,735.375C742.656,724.445 743.68,673.187 743.68,673.187L757.356,654.05L757.012,664.642C757.012,664.642 764.534,654.736 767.436,644.306C770.345,633.888 770.688,629.107 770.688,629.107L771.363,639.362C771.363,639.362 774.964,633.033 775.295,620.044C775.644,607.067 779.234,602.105 783.166,594.084C787.098,586.05 798.883,576.987 798.883,576.987L792.903,591C792.903,591 809.307,583.31 820.923,548.456C832.165,514.75 832.533,512.359 832.539,512.24L830.829,536.159C830.829,536.159 837.164,519.581 839.555,500.106C841.946,480.625 841.602,476.868 841.602,476.868L845.71,485.413C845.71,485.413 845.36,460.121 844.006,429.03C842.639,397.933 834.774,386.654 834.774,376.067C834.774,365.475 842.47,285.847 842.982,278.675C843.494,271.504 841.091,269.619 838.363,268.595C835.629,267.565 831.359,267.053 831.359,267.053C831.359,267.053 832.04,258.171 829.312,254.757C826.578,251.342 815.811,241.43 811.198,241.767C806.585,242.111 791.037,266.541 786.256,276.116C781.468,285.679 777.536,298.15 774.121,300.541C770.707,302.938 757.381,300.884 753.973,307.376C750.546,313.873 737.051,347.523 734.317,350.607C731.589,353.678 719.28,356.749 710.23,369.226C701.173,381.691 697.752,385.455 697.752,385.455C697.752,385.455 706.303,383.414 710.916,382.896C715.529,382.384 722.701,380.331 721.846,381.18C720.984,382.035 719.792,386.142 714.324,392.459C708.856,398.782 697.246,405.273 698.102,404.936C698.957,404.593 706.641,404.761 706.641,404.761C706.641,404.761 692.297,416.034 682.378,423.381C672.472,430.734 667.173,432.095 667.173,432.095L676.23,433.124C676.23,433.124 668.372,448.33 651.456,454.653C634.547,460.97 624.972,465.926 624.972,465.926L636.426,464.559C636.426,464.559 607.725,494.282 580.043,505.561C552.366,516.847 535.282,511.029 506.233,525.723C477.189,540.416 473.431,548.955 473.431,548.955C473.431,548.955 443.708,550.153 425.937,566.214C408.173,582.268 404.066,591.843 404.066,591.843L413.291,585.688C413.291,585.688 410.557,589.103 399.971,608.577C389.372,628.058 378.443,637.284 378.443,637.284L392.449,632.165C392.449,632.165 378.099,654.705 359.642,664.617C341.197,674.535 334.356,675.547 334.356,675.547L345.979,675.89C345.979,675.89 331.966,683.074 312.154,684.441C292.33,685.808 285.158,684.098 285.158,684.098L296.087,689.566C296.087,689.566 278.654,691.95 263.973,687.512C249.273,683.074 245.516,682.044 245.516,682.044C245.516,682.044 258.842,701.182 271.482,711.437C284.122,721.686 293.697,724.757 293.697,724.757L283.104,725.101C283.104,725.101 306.168,733.303 319.494,733.64C332.821,733.983 336.41,732.959 336.41,732.959L329.238,738.084C329.238,738.084 349.224,734.838 363.749,727.66C378.262,720.488 378.78,720.313 378.78,720.313L373.143,728.178C373.143,728.178 380.153,725.438 393.816,713.653C407.486,701.862 415.345,690.421 415.345,690.421C415.345,690.421 422.354,700.495 415.176,713.822C407.998,727.148 391.089,728.01 391.089,728.01C391.089,728.01 399.453,729.876 398.604,729.876C397.742,729.876 386.644,733.128 384.422,737.06C382.2,740.986 385.783,785.585 374.854,812.231C363.918,838.89 354.074,842.729 357.763,854.607C358.837,858.047 360.547,862.116 362.438,866.186C347.901,870.705 335.087,874.762 324.419,878.208C303.003,885.136 284.434,891.16 268.342,896.415C174.658,804.185 116.546,675.921 116.546,534.074C116.546,253.265 344.2,25.617 625.003,25.617C905.819,25.617 1133.46,253.265 1133.46,534.074ZM832.539,512.24L832.545,512.234L832.539,512.24ZM703.426,657.782C701.884,661.708 702.396,668.375 702.396,668.375L706.665,662.226C706.665,662.226 709.406,671.109 709.237,681.87C709.062,692.637 707.864,699.983 707.864,699.983L711.965,694.347C711.965,694.347 713.507,727.148 713.675,735.862C713.844,744.582 713.001,742.871 717.607,747.646C722.214,752.434 722.102,752.216 722.844,758.389C709.406,762.327 695.699,766.341 681.848,770.423C678.402,765.355 675.406,757.746 675.406,746.629C675.406,720.657 678.134,711.431 678.134,711.431L681.891,721.337C681.891,721.337 681.554,703.916 680.868,689.216C680.187,674.529 681.205,651.628 681.205,651.628C681.205,651.628 687.016,651.116 693.851,648.9C700.692,646.672 707.009,643.775 707.009,643.775C707.009,643.775 704.961,653.85 703.426,657.782ZM598.344,648.9C604.661,650.604 618.33,655.042 618.33,655.042C618.33,655.042 609.067,656.272 606.24,656.565C605.953,656.54 605.722,656.54 605.522,656.59C605.26,656.652 605.566,656.64 606.24,656.565C606.833,656.627 607.657,656.827 608.905,657.021C611.183,657.383 614.86,657.738 621.064,657.27C632.337,656.415 638.142,655.042 638.142,655.042C638.142,655.042 646.013,677.943 643.616,692.98C641.232,708.017 638.835,721.68 640.552,719.976C642.249,718.266 645.67,711.094 645.67,711.094C645.67,711.094 644.989,722.367 642.593,735.007C640.202,747.646 638.835,754.825 638.835,754.825L644.646,748.676C644.646,748.676 643.616,756.023 646.013,760.467C648.404,764.905 651.993,765.423 653.703,770.71C654.128,772.027 654.783,774.774 655.545,778.163C603.974,793.356 551.137,809.035 502.225,823.685C501.801,816.538 501.751,807.213 503.336,799.248C504.241,794.704 505.39,790.996 506.557,788.025C509.335,780.947 512.219,778.063 512.219,778.063L511.195,787.626C511.195,787.626 531.362,771.915 541.78,758.245C552.21,744.582 553.059,743.552 553.059,743.552L549.807,752.777C549.807,752.777 561.092,740.818 566.723,723.559C572.184,706.862 572.197,703.441 572.19,703.236L572.534,712.63C572.534,712.63 576.466,704.596 577.833,692.468C579.206,680.34 581.26,658.294 583.813,654.025C585.829,650.66 589.743,648.363 594.399,648.363C595.666,648.363 596.989,648.532 598.344,648.9ZM572.19,703.236L572.19,703.229L572.19,703.236ZM480.098,767.127C472.576,779.424 468.482,783.531 469.512,790.029C470.535,796.508 476.684,792.757 475.997,809.497C475.647,818.067 475.21,826.101 474.867,831.899C446.267,840.501 419.464,848.628 395.595,855.943C392.549,848.028 390.489,838.453 393.305,830.002C399.453,811.551 407.998,799.585 407.998,799.585L407.318,809.841C407.318,809.841 414.496,792.076 418.079,782.507C421.668,772.939 427.473,760.979 427.473,760.979L442.172,753.127L435.506,762.683C435.506,762.683 450.88,752.777 460.966,744.582C471.047,736.38 479.923,729.027 479.923,729.027C479.923,729.027 487.619,754.825 480.098,767.127Z" style="fill:white;fill-rule:nonzero;"/>
    </g>
</svg>
