<?xml version="1.0" encoding="UTF-8" standalone="no"?><!DOCTYPE svg PUBLIC "-//W3C//DTD SVG 1.1//EN" "http://www.w3.org/Graphics/SVG/1.1/DTD/svg11.dtd"><svg width="100%" height="100%" viewBox="0 0 1250 1250" version="1.1" xmlns="http://www.w3.org/2000/svg" xmlns:xlink="http://www.w3.org/1999/xlink" xml:space="preserve" xmlns:serif="http://www.serif.com/" style="fill-rule:evenodd;clip-rule:evenodd;stroke-linejoin:round;stroke-miterlimit:2;"><g><g><path d="M114.342,1216.21l-0,-50.076l6.627,0l-0,44.166l24.661,0l0,5.91l-31.288,-0Z" style="fill:#030000;fill-rule:nonzero;"/><path d="M148.021,1216.21l19.231,-50.076l7.139,0l20.495,50.076l-7.549,-0l-5.841,-15.166l-20.939,-0l-5.499,15.166l-7.037,-0Zm14.449,-20.563l16.977,-0l-5.227,-13.868c-1.594,-4.213 -2.778,-7.674 -3.552,-10.384c-0.638,3.211 -1.537,6.399 -2.698,9.564l-5.5,14.688Z" style="fill:#030000;fill-rule:nonzero;"/><path d="M251.485,1198.66l6.627,1.673c-1.389,5.443 -3.888,9.593 -7.498,12.451c-3.609,2.858 -8.021,4.287 -13.236,4.287c-5.397,-0 -9.786,-1.099 -13.168,-3.297c-3.381,-2.197 -5.955,-5.379 -7.719,-9.547c-1.765,-4.167 -2.648,-8.642 -2.648,-13.424c0,-5.214 0.997,-9.763 2.989,-13.646c1.993,-3.882 4.828,-6.831 8.506,-8.847c3.677,-2.015 7.725,-3.022 12.143,-3.022c5.009,-0 9.222,1.275 12.638,3.825c3.416,2.551 5.795,6.137 7.139,10.76l-6.524,1.537c-1.162,-3.644 -2.847,-6.296 -5.056,-7.959c-2.208,-1.662 -4.987,-2.493 -8.334,-2.493c-3.848,-0 -7.065,0.922 -9.65,2.766c-2.584,1.845 -4.4,4.321 -5.448,7.43c-1.047,3.108 -1.571,6.313 -1.571,9.615c-0,4.259 0.621,7.976 1.862,11.153c1.241,3.176 3.171,5.55 5.789,7.122c2.619,1.571 5.454,2.356 8.506,2.356c3.711,0 6.854,-1.07 9.427,-3.21c2.573,-2.141 4.315,-5.318 5.226,-9.53Z" style="fill:#030000;fill-rule:nonzero;"/><path d="M264.26,1191.83c0,-8.312 2.232,-14.819 6.695,-19.521c4.463,-4.702 10.225,-7.054 17.284,-7.054c4.623,0 8.79,1.105 12.502,3.314c3.711,2.209 6.541,5.288 8.488,9.239c1.947,3.951 2.92,8.432 2.92,13.441c0,5.079 -1.024,9.621 -3.074,13.629c-2.049,4.008 -4.953,7.043 -8.71,9.103c-3.757,2.061 -7.811,3.092 -12.16,3.092c-4.714,-0 -8.927,-1.139 -12.639,-3.416c-3.711,-2.277 -6.524,-5.386 -8.437,-9.325c-1.912,-3.94 -2.869,-8.107 -2.869,-12.502Zm6.832,0.103c-0,6.034 1.622,10.788 4.867,14.26c3.245,3.473 7.316,5.209 12.212,5.209c4.987,0 9.091,-1.753 12.314,-5.26c3.222,-3.507 4.833,-8.482 4.833,-14.927c-0,-4.076 -0.689,-7.634 -2.067,-10.674c-1.377,-3.04 -3.393,-5.397 -6.046,-7.071c-2.653,-1.673 -5.63,-2.51 -8.932,-2.51c-4.691,-0 -8.727,1.611 -12.109,4.833c-3.381,3.222 -5.072,8.602 -5.072,16.14Z" style="fill:#030000;fill-rule:nonzero;"/><path d="M320.484,1216.21l-0,-50.076l9.974,0l11.853,35.456c1.093,3.302 1.89,5.773 2.391,7.412c0.569,-1.821 1.457,-4.497 2.664,-8.027l11.989,-34.841l8.916,0l-0,50.076l-6.388,-0l0,-41.912l-14.551,41.912l-5.978,-0l-14.483,-42.629l0,42.629l-6.387,-0Z" style="fill:#030000;fill-rule:nonzero;"/><path d="M378.757,1216.21l-0,-50.076l9.974,0l11.853,35.456c1.093,3.302 1.89,5.773 2.391,7.412c0.569,-1.821 1.457,-4.497 2.664,-8.027l11.989,-34.841l8.916,0l-0,50.076l-6.388,-0l0,-41.912l-14.551,41.912l-5.978,-0l-14.483,-42.629l0,42.629l-6.387,-0Z" style="fill:#030000;fill-rule:nonzero;"/><path d="M470.095,1166.14l6.626,0l0,28.932c0,5.033 -0.569,9.029 -1.708,11.989c-1.138,2.961 -3.193,5.369 -6.165,7.225c-2.972,1.856 -6.871,2.784 -11.699,2.784c-4.691,-0 -8.528,-0.809 -11.511,-2.426c-2.983,-1.616 -5.113,-3.956 -6.388,-7.019c-1.275,-3.063 -1.913,-7.247 -1.913,-12.553l0,-28.932l6.627,0l0,28.898c0,4.349 0.404,7.554 1.213,9.615c0.808,2.061 2.197,3.649 4.167,4.765c1.97,1.116 4.378,1.674 7.224,1.674c4.873,0 8.346,-1.104 10.418,-3.313c2.073,-2.209 3.109,-6.456 3.109,-12.741l-0,-28.898Z" style="fill:#030000;fill-rule:nonzero;"/><path d="M487.686,1216.21l-0,-50.076l6.797,0l26.302,39.316l-0,-39.316l6.353,0l0,50.076l-6.797,-0l-26.302,-39.35l0,39.35l-6.353,-0Z" style="fill:#030000;fill-rule:nonzero;"/><path d="M532.774,1216.21l19.231,-50.076l7.139,0l20.495,50.076l-7.549,-0l-5.841,-15.166l-20.939,-0l-5.499,15.166l-7.037,-0Zm14.449,-20.563l16.976,-0l-5.226,-13.868c-1.594,-4.213 -2.778,-7.674 -3.552,-10.384c-0.638,3.211 -1.537,6.399 -2.699,9.564l-5.499,14.688Z" style="fill:#030000;fill-rule:nonzero;"/><path d="M617.793,1166.14l6.626,0l0,28.932c0,5.033 -0.569,9.029 -1.708,11.989c-1.138,2.961 -3.193,5.369 -6.165,7.225c-2.972,1.856 -6.871,2.784 -11.699,2.784c-4.691,-0 -8.528,-0.809 -11.511,-2.426c-2.983,-1.616 -5.112,-3.956 -6.388,-7.019c-1.275,-3.063 -1.913,-7.247 -1.913,-12.553l0,-28.932l6.627,0l0,28.898c0,4.349 0.404,7.554 1.213,9.615c0.808,2.061 2.197,3.649 4.167,4.765c1.97,1.116 4.378,1.674 7.224,1.674c4.873,0 8.346,-1.104 10.418,-3.313c2.073,-2.209 3.109,-6.456 3.109,-12.741l-0,-28.898Z" style="fill:#030000;fill-rule:nonzero;"/><path d="M648.193,1216.21l0,-44.166l-16.498,-0l-0,-5.91l39.691,0l0,5.91l-16.566,-0l-0,44.166l-6.627,-0Z" style="fill:#030000;fill-rule:nonzero;"/><path d="M678.32,1216.21l0,-50.076l36.207,0l0,5.91l-29.58,-0l-0,15.337l27.702,-0l-0,5.875l-27.702,-0l-0,17.044l30.742,0l-0,5.91l-37.369,-0Zm13.663,-53.15l4.543,-9.564l8.062,0l-7.515,9.564l-5.09,0Z" style="fill:#030000;fill-rule:nonzero;"/><path d="M744.279,1216.21l-0,-50.076l17.249,0c3.894,0 6.866,0.24 8.916,0.718c2.869,0.66 5.317,1.856 7.344,3.586c2.641,2.232 4.617,5.084 5.926,8.557c1.309,3.473 1.964,7.441 1.964,11.904c-0,3.803 -0.444,7.173 -1.332,10.111c-0.888,2.937 -2.027,5.368 -3.416,7.292c-1.389,1.924 -2.909,3.439 -4.56,4.543c-1.651,1.105 -3.644,1.941 -5.978,2.511c-2.334,0.569 -5.015,0.854 -8.044,0.854l-18.069,-0Zm6.626,-5.91l10.692,0c3.302,0 5.892,-0.307 7.771,-0.922c1.878,-0.615 3.376,-1.48 4.491,-2.596c1.572,-1.571 2.796,-3.683 3.672,-6.336c0.877,-2.653 1.315,-5.87 1.315,-9.65c0,-5.237 -0.859,-9.262 -2.579,-12.074c-1.719,-2.813 -3.808,-4.697 -6.267,-5.654c-1.777,-0.683 -4.635,-1.024 -8.574,-1.024l-10.521,-0l0,38.256Z" style="fill:#030000;fill-rule:nonzero;"/><path d="M794.935,1216.21l-0,-50.076l36.207,0l-0,5.91l-29.581,-0l0,15.337l27.702,-0l0,5.875l-27.702,-0l0,17.044l30.742,0l0,5.91l-37.368,-0Z" style="fill:#030000;fill-rule:nonzero;"/><path d="M839.203,1200.12l6.251,-0.546c0.296,2.505 0.985,4.56 2.067,6.165c1.081,1.606 2.761,2.904 5.038,3.894c2.277,0.991 4.839,1.486 7.685,1.486c2.528,0 4.76,-0.376 6.695,-1.127c1.936,-0.751 3.376,-1.782 4.321,-3.091c0.945,-1.31 1.418,-2.739 1.418,-4.287c-0,-1.571 -0.456,-2.943 -1.367,-4.116c-0.91,-1.173 -2.413,-2.158 -4.508,-2.955c-1.344,-0.523 -4.316,-1.338 -8.916,-2.442c-4.6,-1.104 -7.822,-2.146 -9.666,-3.125c-2.391,-1.253 -4.173,-2.807 -5.346,-4.663c-1.173,-1.856 -1.759,-3.934 -1.759,-6.234c-0,-2.527 0.717,-4.89 2.152,-7.087c1.435,-2.198 3.53,-3.866 6.285,-5.005c2.755,-1.138 5.818,-1.707 9.188,-1.707c3.712,-0 6.986,0.597 9.821,1.793c2.835,1.195 5.015,2.954 6.541,5.277c1.526,2.323 2.345,4.953 2.459,7.891l-6.353,0.478c-0.342,-3.165 -1.497,-5.557 -3.467,-7.173c-1.97,-1.617 -4.879,-2.425 -8.727,-2.425c-4.008,-0 -6.929,0.734 -8.762,2.203c-1.833,1.468 -2.75,3.239 -2.75,5.311c0,1.799 0.649,3.279 1.947,4.441c1.276,1.161 4.606,2.351 9.992,3.569c5.385,1.218 9.08,2.283 11.084,3.194c2.915,1.343 5.066,3.046 6.456,5.107c1.389,2.06 2.083,4.434 2.083,7.121c0,2.665 -0.763,5.175 -2.288,7.532c-1.526,2.357 -3.718,4.19 -6.576,5.5c-2.858,1.309 -6.074,1.964 -9.649,1.964c-4.532,-0 -8.329,-0.661 -11.392,-1.982c-3.063,-1.32 -5.465,-3.307 -7.207,-5.96c-1.742,-2.653 -2.659,-5.653 -2.75,-9.001Z" style="fill:#030000;fill-rule:nonzero;"/><path d="M907.279,1216.21l0,-50.076l6.627,0l0,44.166l24.662,0l-0,5.91l-31.289,-0Z" style="fill:#030000;fill-rule:nonzero;"/><path d="M944.443,1191.83c0,-8.312 2.232,-14.819 6.695,-19.521c4.463,-4.702 10.225,-7.054 17.284,-7.054c4.622,0 8.79,1.105 12.502,3.314c3.711,2.209 6.541,5.288 8.488,9.239c1.947,3.951 2.92,8.432 2.92,13.441c0,5.079 -1.025,9.621 -3.074,13.629c-2.049,4.008 -4.953,7.043 -8.71,9.103c-3.758,2.061 -7.811,3.092 -12.16,3.092c-4.714,-0 -8.927,-1.139 -12.639,-3.416c-3.712,-2.277 -6.524,-5.386 -8.437,-9.325c-1.913,-3.94 -2.869,-8.107 -2.869,-12.502Zm6.832,0.103c-0,6.034 1.622,10.788 4.867,14.26c3.245,3.473 7.316,5.209 12.211,5.209c4.988,0 9.092,-1.753 12.314,-5.26c3.223,-3.507 4.834,-8.482 4.834,-14.927c-0,-4.076 -0.689,-7.634 -2.067,-10.674c-1.378,-3.04 -3.393,-5.397 -6.046,-7.071c-2.653,-1.673 -5.63,-2.51 -8.932,-2.51c-4.691,-0 -8.727,1.611 -12.109,4.833c-3.382,3.222 -5.072,8.602 -5.072,16.14Z" style="fill:#030000;fill-rule:nonzero;"/><path d="M1033.73,1166.14l6.627,0l-0,28.932c-0,5.033 -0.569,9.029 -1.708,11.989c-1.139,2.961 -3.194,5.369 -6.165,7.225c-2.972,1.856 -6.872,2.784 -11.699,2.784c-4.691,-0 -8.528,-0.809 -11.512,-2.426c-2.983,-1.616 -5.112,-3.956 -6.387,-7.019c-1.275,-3.063 -1.913,-7.247 -1.913,-12.553l0,-28.932l6.627,0l-0,28.898c-0,4.349 0.404,7.554 1.212,9.615c0.809,2.061 2.198,3.649 4.168,4.765c1.969,1.116 4.377,1.674 7.224,1.674c4.873,0 8.346,-1.104 10.418,-3.313c2.072,-2.209 3.108,-6.456 3.108,-12.741l0,-28.898Z" style="fill:#030000;fill-rule:nonzero;"/><path d="M1051.39,1216.21l-0,-50.076l18.889,0c3.325,0 5.864,0.16 7.617,0.479c2.46,0.41 4.521,1.19 6.183,2.339c1.662,1.15 3,2.762 4.013,4.834c1.014,2.072 1.52,4.349 1.52,6.831c0,4.259 -1.355,7.862 -4.064,10.811c-2.71,2.949 -7.606,4.424 -14.688,4.424l-12.843,-0l-0,20.358l-6.627,-0Zm6.627,-26.268l12.945,0c4.281,0 7.321,-0.797 9.12,-2.391c1.799,-1.594 2.699,-3.837 2.699,-6.729c-0,-2.095 -0.53,-3.888 -1.588,-5.38c-1.059,-1.491 -2.454,-2.476 -4.185,-2.954c-1.116,-0.296 -3.176,-0.444 -6.182,-0.444l-12.809,-0l-0,17.898Z" style="fill:#030000;fill-rule:nonzero;"/><path d="M1095.8,1200.12l6.251,-0.546c0.296,2.505 0.985,4.56 2.066,6.165c1.082,1.606 2.761,2.904 5.039,3.894c2.277,0.991 4.839,1.486 7.685,1.486c2.528,0 4.759,-0.376 6.695,-1.127c1.936,-0.751 3.376,-1.782 4.321,-3.091c0.945,-1.31 1.418,-2.739 1.418,-4.287c-0,-1.571 -0.456,-2.943 -1.367,-4.116c-0.911,-1.173 -2.414,-2.158 -4.509,-2.955c-1.343,-0.523 -4.315,-1.338 -8.915,-2.442c-4.6,-1.104 -7.822,-2.146 -9.666,-3.125c-2.391,-1.253 -4.173,-2.807 -5.346,-4.663c-1.173,-1.856 -1.759,-3.934 -1.759,-6.234c-0,-2.527 0.717,-4.89 2.152,-7.087c1.434,-2.198 3.529,-3.866 6.285,-5.005c2.755,-1.138 5.818,-1.707 9.188,-1.707c3.712,-0 6.985,0.597 9.821,1.793c2.835,1.195 5.015,2.954 6.541,5.277c1.525,2.323 2.345,4.953 2.459,7.891l-6.353,0.478c-0.342,-3.165 -1.497,-5.557 -3.467,-7.173c-1.97,-1.617 -4.879,-2.425 -8.728,-2.425c-4.007,-0 -6.928,0.734 -8.761,2.203c-1.833,1.468 -2.75,3.239 -2.75,5.311c0,1.799 0.649,3.279 1.947,4.441c1.276,1.161 4.606,2.351 9.991,3.569c5.386,1.218 9.081,2.283 11.085,3.194c2.914,1.343 5.066,3.046 6.455,5.107c1.389,2.06 2.084,4.434 2.084,7.121c0,2.665 -0.763,5.175 -2.289,7.532c-1.525,2.357 -3.717,4.19 -6.575,5.5c-2.858,1.309 -6.074,1.964 -9.649,1.964c-4.532,-0 -8.329,-0.661 -11.392,-1.982c-3.063,-1.32 -5.465,-3.307 -7.207,-5.96c-1.742,-2.653 -2.659,-5.653 -2.75,-9.001Z" style="fill:#030000;fill-rule:nonzero;"/></g><g><path d="M171.071,1114.28l0,-123.148l-43.981,0l-0,-25.074l117.789,-0l0,25.074l-43.88,0l0,123.148l-29.928,0Z" style="fill:#030000;fill-rule:nonzero;"/><path d="M264.292,1114.28l-0,-148.222l29.927,-0l0,58.338l58.642,0l0,-58.338l29.928,-0l-0,148.222l-29.928,0l0,-64.809l-58.642,-0l0,64.809l-29.927,0Z" style="fill:#030000;fill-rule:nonzero;"/><path d="M413.728,1114.28l-0,-148.222l109.903,-0l-0,25.074l-79.976,0l0,32.86l74.415,-0l-0,24.973l-74.415,0l0,40.342l82.807,-0l-0,24.973l-112.734,0Z" style="fill:#030000;fill-rule:nonzero;"/><path d="M609.673,1114.28l-0,-148.222l29.118,-0l60.664,98.983l0,-98.983l27.805,-0l-0,148.222l-30.029,0l-59.754,-96.658l-0,96.658l-27.804,0Z" style="fill:#030000;fill-rule:nonzero;"/><path d="M758.906,1114.28l0,-148.222l109.903,-0l0,25.074l-79.975,0l-0,32.86l74.414,-0l0,24.973l-74.414,0l-0,40.342l82.806,-0l0,24.973l-112.734,0Z" style="fill:#030000;fill-rule:nonzero;"/><path d="M889.435,1066.05l29.119,-2.831c1.752,9.774 5.308,16.952 10.666,21.536c5.359,4.583 12.588,6.875 21.688,6.875c9.639,0 16.902,-2.039 21.788,-6.117c4.887,-4.078 7.331,-8.847 7.331,-14.306c-0,-3.505 -1.028,-6.488 -3.084,-8.948c-2.056,-2.461 -5.645,-4.601 -10.768,-6.421c-3.505,-1.213 -11.493,-3.37 -23.962,-6.47c-16.043,-3.977 -27.299,-8.864 -33.77,-14.661c-9.1,-8.156 -13.649,-18.098 -13.649,-29.826c-0,-7.55 2.14,-14.61 6.42,-21.182c4.28,-6.572 10.448,-11.577 18.502,-15.015c8.055,-3.437 17.778,-5.156 29.17,-5.156c18.603,-0 32.607,4.078 42.01,12.234c9.402,8.156 14.34,19.042 14.812,32.657l-29.928,1.315c-1.281,-7.617 -4.027,-13.094 -8.24,-16.43c-4.213,-3.337 -10.532,-5.005 -18.958,-5.005c-8.695,0 -15.503,1.786 -20.423,5.359c-3.168,2.291 -4.752,5.358 -4.752,9.2c-0,3.505 1.483,6.505 4.448,8.999c3.775,3.168 12.942,6.471 27.502,9.908c14.559,3.438 25.327,6.994 32.303,10.667c6.977,3.674 12.436,8.695 16.379,15.065c3.944,6.37 5.915,14.239 5.915,23.608c0,8.493 -2.359,16.447 -7.077,23.862c-4.719,7.414 -11.392,12.924 -20.019,16.531c-8.628,3.606 -19.379,5.409 -32.253,5.409c-18.739,-0 -33.13,-4.331 -43.173,-12.992c-10.043,-8.662 -16.042,-21.283 -17.997,-37.865Z" style="fill:#030000;fill-rule:nonzero;"/><path d="M1068.5,1114.28l-0,-123.148l-43.981,0l-0,-25.074l117.789,-0l-0,25.074l-43.88,0l-0,123.148l-29.928,0Z" style="fill:#030000;fill-rule:nonzero;"/></g><path d="M1133.46,534.074c0,154.774 -69.172,293.375 -178.268,386.629c-5.093,-23.551 -12.996,-71.077 -2.041,-101.949c15.03,-42.37 13.663,-49.885 19.818,-69.023c6.148,-19.137 10.929,-40.316 4.781,-45.097c-6.154,-4.794 -22.558,-10.942 -31.44,-10.262c-3.72,0.287 -89.515,24.874 -197.967,56.558c-3.146,-4.351 -5.687,-9.706 -5.687,-15.555c0,-10.93 1.024,-62.188 1.024,-62.188l13.676,-19.137l-0.344,10.592c0,0 7.522,-9.906 10.424,-20.336c2.909,-10.418 3.252,-15.199 3.252,-15.199l0.675,10.255c0,0 3.601,-6.329 3.932,-19.318c0.349,-12.977 3.939,-17.939 7.871,-25.96c3.932,-8.034 15.717,-17.097 15.717,-17.097l-5.98,14.013c0,0 16.404,-7.69 28.02,-42.544c11.242,-33.706 11.61,-36.097 11.616,-36.216l-1.71,23.919c0,0 6.335,-16.578 8.726,-36.053c2.391,-19.481 2.047,-23.238 2.047,-23.238l4.108,8.545c0,0 -0.35,-25.292 -1.704,-56.383c-1.367,-31.097 -9.232,-42.376 -9.232,-52.963c0,-10.592 7.696,-90.22 8.208,-97.392c0.512,-7.171 -1.891,-9.056 -4.619,-10.08c-2.734,-1.03 -7.004,-1.542 -7.004,-1.542c0,0 0.681,-8.882 -2.047,-12.296c-2.734,-3.415 -13.501,-13.327 -18.114,-12.99c-4.613,0.344 -20.161,24.774 -24.942,34.349c-4.788,9.563 -8.72,22.034 -12.135,24.425c-3.414,2.397 -16.74,0.343 -20.148,6.835c-3.427,6.497 -16.922,40.147 -19.656,43.231c-2.728,3.071 -15.037,6.142 -24.087,18.619c-9.057,12.465 -12.478,16.229 -12.478,16.229c0,0 8.551,-2.041 13.164,-2.559c4.613,-0.512 11.785,-2.565 10.93,-1.716c-0.862,0.855 -2.054,4.962 -7.522,11.279c-5.468,6.323 -17.078,12.814 -16.222,12.477c0.855,-0.343 8.539,-0.175 8.539,-0.175c0,0 -14.344,11.273 -24.263,18.62c-9.906,7.353 -15.205,8.714 -15.205,8.714l9.057,1.029c0,0 -7.858,15.206 -24.774,21.529c-16.909,6.317 -26.484,11.273 -26.484,11.273l11.454,-1.367c0,0 -28.701,29.723 -56.383,41.002c-27.677,11.286 -44.761,5.468 -73.81,20.162c-29.044,14.693 -32.802,23.232 -32.802,23.232c0,0 -29.723,1.198 -47.494,17.259c-17.764,16.054 -21.871,25.629 -21.871,25.629l9.225,-6.155c0,0 -2.734,3.415 -13.32,22.889c-10.599,19.481 -21.528,28.707 -21.528,28.707l14.006,-5.119c0,0 -14.35,22.54 -32.807,32.452c-18.445,9.918 -25.286,10.93 -25.286,10.93l11.623,0.343c0,0 -14.013,7.184 -33.825,8.551c-19.824,1.367 -26.996,-0.343 -26.996,-0.343l10.929,5.468c0,0 -17.433,2.384 -32.114,-2.054c-14.7,-4.438 -18.457,-5.468 -18.457,-5.468c0,0 13.326,19.138 25.966,29.393c12.64,10.249 22.215,13.32 22.215,13.32l-10.593,0.344c0,0 23.064,8.202 36.39,8.539c13.327,0.343 16.916,-0.681 16.916,-0.681l-7.172,5.125c0,0 19.986,-3.246 34.511,-10.424c14.513,-7.172 15.031,-7.347 15.031,-7.347l-5.637,7.865c0,0 7.01,-2.74 20.673,-14.525c13.67,-11.791 21.529,-23.232 21.529,-23.232c0,0 7.009,10.074 -0.169,23.401c-7.178,13.326 -24.087,14.188 -24.087,14.188c0,0 8.364,1.866 7.515,1.866c-0.862,0 -11.96,3.252 -14.182,7.184c-2.222,3.926 1.361,48.525 -9.568,75.171c-10.936,26.659 -20.78,30.498 -17.091,42.376c1.074,3.44 2.784,7.509 4.675,11.579c-14.537,4.519 -27.351,8.576 -38.019,12.022c-21.416,6.928 -39.985,12.952 -56.077,18.207c-93.684,-92.23 -151.796,-220.494 -151.796,-362.341c0,-280.809 227.654,-508.457 508.457,-508.457c280.816,0 508.457,227.648 508.457,508.457Zm-300.921,-21.834l0.006,-0.006l-0.006,0.006Zm-129.113,145.542c-1.542,3.926 -1.03,10.593 -1.03,10.593l4.269,-6.149c0,-0 2.741,8.883 2.572,19.644c-0.175,10.767 -1.373,18.113 -1.373,18.113l4.101,-5.636c0,-0 1.542,32.801 1.71,41.515c0.169,8.72 -0.674,7.009 3.932,11.784c4.607,4.788 4.495,4.57 5.237,10.743c-13.438,3.938 -27.145,7.952 -40.996,12.034c-3.446,-5.068 -6.442,-12.677 -6.442,-23.794c0,-25.972 2.728,-35.198 2.728,-35.198l3.757,9.906c0,-0 -0.337,-17.421 -1.023,-32.121c-0.681,-14.687 0.337,-37.588 0.337,-37.588c0,-0 5.811,-0.512 12.646,-2.728c6.841,-2.228 13.158,-5.125 13.158,-5.125c0,-0 -2.048,10.075 -3.583,14.007Zm-105.082,-8.882c6.317,1.704 19.986,6.142 19.986,6.142c0,-0 -9.263,1.23 -12.09,1.523c-0.287,-0.025 -0.518,-0.025 -0.718,0.025c-0.262,0.062 0.044,0.05 0.718,-0.025c0.593,0.062 1.417,0.262 2.665,0.456c2.278,0.362 5.955,0.717 12.159,0.249c11.273,-0.855 17.078,-2.228 17.078,-2.228c0,-0 7.871,22.901 5.474,37.938c-2.384,15.037 -4.781,28.7 -3.064,26.996c1.697,-1.71 5.118,-8.882 5.118,-8.882c0,-0 -0.681,11.273 -3.077,23.913c-2.391,12.639 -3.758,19.818 -3.758,19.818l5.811,-6.149c0,-0 -1.03,7.347 1.367,11.791c2.391,4.438 5.98,4.956 7.69,10.243c0.425,1.317 1.08,4.064 1.842,7.453c-51.571,15.193 -104.408,30.872 -153.32,45.522c-0.424,-7.147 -0.474,-16.472 1.111,-24.437c0.905,-4.544 2.054,-8.252 3.221,-11.223c2.778,-7.078 5.662,-9.962 5.662,-9.962l-1.024,9.563c0,-0 20.167,-15.711 30.585,-29.381c10.43,-13.663 11.279,-14.693 11.279,-14.693l-3.252,9.225c0,-0 11.285,-11.959 16.916,-29.218c5.461,-16.697 5.474,-20.118 5.467,-20.323l0.344,9.394c0,-0 3.932,-8.034 5.299,-20.162c1.373,-12.128 3.427,-34.174 5.98,-38.443c2.016,-3.365 5.93,-5.662 10.586,-5.662c1.267,-0 2.59,0.169 3.945,0.537Zm-26.154,54.336l0,-0.007l0,0.007Zm-92.092,63.891c-7.522,12.297 -11.616,16.404 -10.586,22.902c1.023,6.479 7.172,2.728 6.485,19.468c-0.35,8.57 -0.787,16.604 -1.13,22.402c-28.6,8.602 -55.403,16.729 -79.272,24.044c-3.046,-7.915 -5.106,-17.49 -2.29,-25.941c6.148,-18.451 14.693,-30.417 14.693,-30.417l-0.68,10.256c0,-0 7.178,-17.765 10.761,-27.334c3.589,-9.568 9.394,-21.528 9.394,-21.528l14.699,-7.852l-6.666,9.556c0,-0 15.374,-9.906 25.46,-18.101c10.081,-8.202 18.957,-15.555 18.957,-15.555c0,-0 7.696,25.798 0.175,38.1Z" style="fill:#050505;fill-rule:nonzero;"/></g></svg>