<?xml version="1.0" encoding="UTF-8" standalone="no"?>
<!DOCTYPE svg PUBLIC "-//W3C//DTD SVG 1.1//EN" "http://www.w3.org/Graphics/SVG/1.1/DTD/svg11.dtd">
<svg width="100%" height="100%" viewBox="0 0 2084 442" version="1.1" xmlns="http://www.w3.org/2000/svg" xmlns:xlink="http://www.w3.org/1999/xlink" xml:space="preserve" xmlns:serif="http://www.serif.com/" style="fill-rule:evenodd;clip-rule:evenodd;stroke-linejoin:round;stroke-miterlimit:2;">
    <g transform="matrix(1,0,0,1,-3,2)">
        <g transform="matrix(1.05101,0,0,1.05101,544.96,405.133)">
            <text x="0px" y="0px" style="font-family:'ArialMT', 'Arial', sans-serif;font-size:92.897px;fill:white;">LA<tspan x="108.501px 134.311px " y="0px 0px "> C</tspan>OMMUNAUTÉ DES LOUPS</text>
        </g>
        <g transform="matrix(1.22426,0,0,1.22426,-118.308,343.602)">
            <text x="549.785px" y="-65.951px" style="font-family:'Arial-BoldMT', 'Arial', sans-serif;font-weight:700;font-size:236.062px;fill:white;">THE NEST</text>
        </g>
    </g>
    <path d="M484.516,247.889C484.516,316.632 455.256,378.193 409.107,419.612C406.953,409.152 403.61,388.043 408.244,374.331C414.602,355.512 414.024,352.174 416.627,343.674C419.228,335.174 421.25,325.767 418.65,323.644C416.046,321.514 409.107,318.784 405.35,319.086C403.777,319.213 367.485,330.134 321.609,344.206C320.278,342.274 319.203,339.895 319.203,337.298C319.203,332.443 319.636,309.676 319.636,309.676L325.421,301.176L325.276,305.881C325.276,305.881 328.458,301.481 329.686,296.849C330.916,292.222 331.061,290.098 331.061,290.098L331.346,294.653C331.346,294.653 332.87,291.842 333.01,286.073C333.158,280.309 334.676,278.105 336.339,274.542C338.003,270.974 342.988,266.949 342.988,266.949L340.458,273.173C340.458,273.173 347.397,269.757 352.311,254.276C357.066,239.306 357.222,238.244 357.225,238.191L356.501,248.815C356.501,248.815 359.181,241.451 360.192,232.802C361.204,224.149 361.058,222.48 361.058,222.48L362.796,226.275C362.796,226.275 362.648,215.042 362.075,201.233C361.497,187.421 358.17,182.411 358.17,177.709C358.17,173.005 361.425,137.637 361.642,134.452C361.858,131.267 360.842,130.429 359.688,129.975C358.532,129.517 356.726,129.29 356.726,129.29C356.726,129.29 357.013,125.345 355.859,123.828C354.703,122.312 350.148,117.909 348.197,118.059C346.246,118.212 339.669,129.063 337.646,133.315C335.621,137.563 333.958,143.102 332.513,144.164C331.069,145.228 325.432,144.316 323.99,147.199C322.541,150.085 316.832,165.031 315.676,166.401C314.522,167.765 309.315,169.129 305.487,174.671C301.656,180.207 300.209,181.879 300.209,181.879C300.209,181.879 303.826,180.972 305.777,180.742C307.728,180.515 310.762,179.603 310.401,179.98C310.036,180.36 309.532,182.184 307.219,184.989C304.906,187.798 299.995,190.681 300.357,190.531C300.718,190.379 303.969,190.454 303.969,190.454C303.969,190.454 297.901,195.461 293.706,198.724C289.515,201.99 287.274,202.594 287.274,202.594L291.105,203.051C291.105,203.051 287.781,209.805 280.625,212.613C273.473,215.419 269.422,217.62 269.422,217.62L274.267,217.013C274.267,217.013 262.127,230.215 250.417,235.225C238.71,240.237 231.483,237.653 219.195,244.179C206.909,250.706 205.32,254.498 205.32,254.498C205.32,254.498 192.746,255.03 185.229,262.164C177.715,269.294 175.977,273.547 175.977,273.547L179.88,270.813C179.88,270.813 178.723,272.33 174.245,280.98C169.762,289.632 165.139,293.73 165.139,293.73L171.064,291.457C171.064,291.457 164.994,301.468 157.186,305.87C149.384,310.275 146.49,310.724 146.49,310.724L151.406,310.877C151.406,310.877 145.479,314.068 137.098,314.675C128.713,315.282 125.679,314.523 125.679,314.523L130.302,316.951C130.302,316.951 122.928,318.01 116.717,316.039C110.499,314.068 108.91,313.61 108.91,313.61C108.91,313.61 114.547,322.111 119.894,326.666C125.24,331.218 129.291,332.582 129.291,332.582L124.81,332.734C124.81,332.734 134.566,336.377 140.203,336.527C145.84,336.679 147.359,336.225 147.359,336.225L144.325,338.501C144.325,338.501 152.779,337.059 158.923,333.871C165.062,330.685 165.281,330.608 165.281,330.608L162.897,334.101C162.897,334.101 165.862,332.884 171.642,327.65C177.424,322.413 180.749,317.331 180.749,317.331C180.749,317.331 183.714,321.806 180.677,327.725C177.641,333.644 170.488,334.026 170.488,334.026C170.488,334.026 174.026,334.855 173.667,334.855C173.303,334.855 168.608,336.299 167.668,338.046C166.728,339.79 168.244,359.598 163.621,371.434C158.995,383.274 154.831,384.979 156.391,390.255C156.845,391.783 157.569,393.59 158.369,395.398C152.22,397.405 146.799,399.207 142.287,400.738C133.228,403.815 125.372,406.49 118.566,408.824C78.937,367.86 54.355,310.891 54.355,247.889C54.355,123.166 150.654,22.055 269.435,22.055C388.222,22.055 484.516,123.166 484.516,247.889ZM357.225,238.191L357.227,238.188L357.225,238.191ZM302.609,302.834C301.957,304.578 302.173,307.539 302.173,307.539L303.979,304.808C303.979,304.808 305.138,308.753 305.067,313.533C304.993,318.315 304.486,321.578 304.486,321.578L306.221,319.075C306.221,319.075 306.873,333.644 306.944,337.514C307.016,341.387 306.659,340.627 308.608,342.748C310.556,344.874 310.509,344.777 310.823,347.519C305.138,349.269 299.34,351.051 293.481,352.864C292.024,350.613 290.756,347.234 290.756,342.296C290.756,330.76 291.91,326.663 291.91,326.663L293.5,331.062C293.5,331.062 293.357,323.325 293.067,316.796C292.779,310.273 293.209,300.101 293.209,300.101C293.209,300.101 295.667,299.873 298.559,298.889C301.452,297.899 304.124,296.613 304.124,296.613C304.124,296.613 303.258,301.088 302.609,302.834ZM258.158,298.889C260.831,299.646 266.613,301.617 266.613,301.617C266.613,301.617 262.695,302.163 261.499,302.294C261.377,302.283 261.279,302.283 261.195,302.305C261.084,302.332 261.213,302.327 261.499,302.294C261.749,302.321 262.098,302.41 262.626,302.496C263.59,302.657 265.145,302.815 267.769,302.607C272.538,302.227 274.993,301.617 274.993,301.617C274.993,301.617 278.323,311.789 277.309,318.468C276.3,325.146 275.286,331.215 276.013,330.458C276.731,329.698 278.178,326.513 278.178,326.513C278.178,326.513 277.89,331.52 276.876,337.134C275.865,342.748 275.286,345.936 275.286,345.936L277.745,343.205C277.745,343.205 277.309,346.469 278.323,348.442C279.334,350.414 280.852,350.644 281.576,352.992C281.755,353.577 282.033,354.797 282.355,356.302C260.54,363.05 238.189,370.014 217.5,376.521C217.32,373.347 217.299,369.205 217.97,365.667C218.353,363.649 218.838,362.002 219.332,360.682C220.507,357.539 221.727,356.258 221.727,356.258L221.294,360.505C221.294,360.505 229.825,353.527 234.232,347.455C238.644,341.387 239.003,340.929 239.003,340.929L237.627,345.027C237.627,345.027 242.401,339.715 244.782,332.049C247.093,324.633 247.098,323.114 247.095,323.023L247.241,327.195C247.241,327.195 248.904,323.627 249.482,318.24C250.063,312.854 250.932,303.062 252.012,301.165C252.865,299.671 254.52,298.651 256.49,298.651C257.026,298.651 257.586,298.726 258.158,298.889ZM247.095,323.023L247.095,323.02L247.095,323.023ZM208.14,351.401C204.958,356.862 203.226,358.686 203.662,361.572C204.095,364.45 206.695,362.784 206.405,370.219C206.257,374.026 206.072,377.594 205.927,380.169C193.829,383.99 182.491,387.599 172.395,390.848C171.106,387.333 170.235,383.08 171.426,379.327C174.026,371.131 177.641,365.817 177.641,365.817L177.353,370.372C177.353,370.372 180.39,362.482 181.905,358.232C183.423,353.982 185.879,348.67 185.879,348.67L192.097,345.182L189.277,349.427C189.277,349.427 195.78,345.027 200.047,341.387C204.311,337.744 208.066,334.478 208.066,334.478C208.066,334.478 211.321,345.936 208.14,351.401Z" style="fill:white;fill-rule:nonzero;"/>
    <g id="Calque1">
    </g>
</svg>
