<?xml version="1.0" encoding="UTF-8" standalone="no"?>
<!DOCTYPE svg PUBLIC "-//W3C//DTD SVG 1.1//EN" "http://www.w3.org/Graphics/SVG/1.1/DTD/svg11.dtd">
<svg width="100%" height="100%" viewBox="0 0 1250 1250" version="1.1" xmlns="http://www.w3.org/2000/svg" xmlns:xlink="http://www.w3.org/1999/xlink" xml:space="preserve" xmlns:serif="http://www.serif.com/" style="fill-rule:evenodd;clip-rule:evenodd;stroke-linejoin:round;stroke-miterlimit:2;">
    <path d="M1133.46,685.914C1133.46,840.688 1064.29,979.289 955.192,1072.54C950.099,1048.99 942.196,1001.47 953.151,970.594C968.181,928.224 966.814,920.709 972.969,901.571C979.117,882.434 983.898,861.255 977.75,856.474C971.596,851.68 955.192,845.532 946.31,846.212C942.59,846.499 856.795,871.086 748.343,902.77C745.197,898.419 742.656,893.064 742.656,887.215C742.656,876.286 743.68,825.027 743.68,825.027L757.356,805.89L757.012,816.482C757.012,816.482 764.534,806.576 767.436,796.146C770.345,785.728 770.688,780.947 770.688,780.947L771.363,791.202C771.363,791.202 774.964,784.873 775.295,771.884C775.644,758.907 779.234,753.945 783.166,745.924C787.098,737.891 798.883,728.827 798.883,728.827L792.903,742.84C792.903,742.84 809.307,735.15 820.923,700.296C832.165,666.59 832.533,664.199 832.539,664.08L830.829,687.999C830.829,687.999 837.164,671.421 839.555,651.946C841.946,632.465 841.602,628.708 841.602,628.708L845.71,637.253C845.71,637.253 845.36,611.961 844.006,580.87C842.639,549.773 834.774,538.494 834.774,527.908C834.774,517.315 842.47,437.687 842.982,430.516C843.494,423.344 841.091,421.459 838.363,420.435C835.629,419.405 831.359,418.893 831.359,418.893C831.359,418.893 832.04,410.011 829.312,406.597C826.578,403.182 815.811,393.27 811.198,393.607C806.585,393.951 791.037,418.381 786.256,427.956C781.468,437.519 777.536,449.99 774.121,452.381C770.707,454.778 757.381,452.724 753.973,459.216C750.546,465.714 737.051,499.363 734.317,502.447C731.589,505.518 719.28,508.589 710.23,521.066C701.173,533.532 697.752,537.295 697.752,537.295C697.752,537.295 706.303,535.254 710.916,534.736C715.529,534.224 722.701,532.171 721.846,533.02C720.984,533.875 719.792,537.982 714.324,544.299C708.856,550.622 697.246,557.113 698.102,556.776C698.957,556.433 706.641,556.602 706.641,556.602C706.641,556.602 692.297,567.874 682.378,575.221C672.472,582.574 667.173,583.935 667.173,583.935L676.23,584.965C676.23,584.965 668.372,600.17 651.456,606.493C634.547,612.81 624.972,617.766 624.972,617.766L636.426,616.399C636.426,616.399 607.725,646.123 580.043,657.402C552.366,668.687 535.282,662.869 506.233,677.563C477.189,692.256 473.431,700.795 473.431,700.795C473.431,700.795 443.708,701.994 425.937,718.054C408.173,734.108 404.066,743.683 404.066,743.683L413.291,737.529C413.291,737.529 410.557,740.943 399.971,760.418C389.372,779.898 378.443,789.124 378.443,789.124L392.449,784.006C392.449,784.006 378.099,806.545 359.642,816.457C341.197,826.375 334.356,827.387 334.356,827.387L345.979,827.73C345.979,827.73 331.966,834.914 312.154,836.281C292.33,837.648 285.158,835.938 285.158,835.938L296.087,841.406C296.087,841.406 278.654,843.79 263.973,839.352C249.273,834.914 245.516,833.884 245.516,833.884C245.516,833.884 258.842,853.022 271.482,863.277C284.122,873.527 293.697,876.598 293.697,876.598L283.104,876.941C283.104,876.941 306.168,885.143 319.494,885.48C332.821,885.823 336.41,884.799 336.41,884.799L329.238,889.924C329.238,889.924 349.224,886.678 363.749,879.5C378.262,872.328 378.78,872.153 378.78,872.153L373.143,880.018C373.143,880.018 380.153,877.278 393.816,865.493C407.486,853.702 415.345,842.261 415.345,842.261C415.345,842.261 422.354,852.335 415.176,865.662C407.998,878.988 391.089,879.85 391.089,879.85C391.089,879.85 399.453,881.716 398.604,881.716C397.742,881.716 386.644,884.968 384.422,888.9C382.2,892.826 385.783,937.425 374.854,964.071C363.918,990.73 354.074,994.569 357.763,1006.45C358.837,1009.89 360.547,1013.96 362.438,1018.03C347.901,1022.55 335.087,1026.6 324.419,1030.05C303.003,1036.98 284.434,1043 268.342,1048.26C174.658,956.025 116.546,827.761 116.546,685.914C116.546,405.105 344.2,177.457 625.003,177.457C905.819,177.457 1133.46,405.105 1133.46,685.914ZM832.539,664.08L832.545,664.074L832.539,664.08ZM703.426,809.622C701.884,813.548 702.396,820.215 702.396,820.215L706.665,814.066C706.665,814.066 709.406,822.949 709.237,833.71C709.062,844.477 707.864,851.824 707.864,851.824L711.965,846.187C711.965,846.187 713.507,878.988 713.675,887.702C713.844,896.422 713.001,894.712 717.607,899.487C722.214,904.274 722.102,904.056 722.844,910.229C709.406,914.167 695.699,918.181 681.848,922.263C678.402,917.195 675.406,909.586 675.406,898.469C675.406,872.497 678.134,863.271 678.134,863.271L681.891,873.177C681.891,873.177 681.554,855.756 680.868,841.056C680.187,826.369 681.205,803.468 681.205,803.468C681.205,803.468 687.016,802.956 693.851,800.74C700.692,798.512 707.009,795.615 707.009,795.615C707.009,795.615 704.961,805.69 703.426,809.622ZM598.344,800.74C604.661,802.444 618.33,806.882 618.33,806.882C618.33,806.882 609.067,808.112 606.24,808.405C605.953,808.38 605.722,808.38 605.522,808.43C605.26,808.492 605.566,808.48 606.24,808.405C606.833,808.468 607.657,808.667 608.905,808.861C611.183,809.223 614.86,809.579 621.064,809.11C632.337,808.255 638.142,806.882 638.142,806.882C638.142,806.882 646.013,829.784 643.616,844.82C641.232,859.857 638.835,873.52 640.552,871.816C642.249,870.106 645.67,862.934 645.67,862.934C645.67,862.934 644.989,874.207 642.593,886.847C640.202,899.487 638.835,906.665 638.835,906.665L644.646,900.516C644.646,900.516 643.616,907.863 646.013,912.307C648.404,916.745 651.993,917.263 653.703,922.55C654.128,923.867 654.783,926.614 655.545,930.003C603.974,945.196 551.137,960.875 502.225,975.525C501.801,968.378 501.751,959.053 503.336,951.088C504.241,946.544 505.39,942.836 506.557,939.865C509.335,932.787 512.219,929.903 512.219,929.903L511.195,939.466C511.195,939.466 531.362,923.755 541.78,910.085C552.21,896.422 553.059,895.392 553.059,895.392L549.807,904.617C549.807,904.617 561.092,892.658 566.723,875.399C572.184,858.702 572.197,855.282 572.19,855.076L572.534,864.47C572.534,864.47 576.466,856.436 577.833,844.308C579.206,832.18 581.26,810.134 583.813,805.865C585.829,802.5 589.743,800.203 594.399,800.203C595.666,800.203 596.989,800.372 598.344,800.74ZM572.19,855.076L572.19,855.069L572.19,855.076ZM480.098,918.967C472.576,931.264 468.482,935.371 469.512,941.869C470.535,948.348 476.684,944.597 475.997,961.337C475.647,969.907 475.21,977.941 474.867,983.739C446.267,992.341 419.464,1000.47 395.595,1007.78C392.549,999.868 390.489,990.293 393.305,981.842C399.453,963.391 407.998,951.425 407.998,951.425L407.318,961.681C407.318,961.681 414.496,943.916 418.079,934.347C421.668,924.779 427.473,912.819 427.473,912.819L442.172,904.967L435.506,914.523C435.506,914.523 450.88,904.617 460.966,896.422C471.047,888.22 479.923,880.867 479.923,880.867C479.923,880.867 487.619,906.665 480.098,918.967Z" style="fill:white;fill-rule:nonzero;"/>
</svg>